<svg xmlns="http://www.w3.org/2000/svg" xmlns:xlink="http://www.w3.org/1999/xlink" id="Capa_1" x="0px" y="0px" viewBox="0 0 512 512" style="enable-background:new 0 0 512 512;" xml:space="preserve">
<style type="text/css">
	.st0{display:none;}
	.st1{display:inline;opacity:0.6;fill:#C1CCD3;enable-background:new    ;}
	.st2{display:inline;opacity:0.23;}
	.st3{fill:url(#SVGID_1_);}
	.st4{fill:url(#SVGID_2_);}
	.st5{fill:url(#SVGID_3_);}
	.st6{fill:url(#SVGID_4_);}
	.st7{fill:url(#SVGID_5_);}
	.st8{fill:url(#SVGID_6_);}
	.st9{fill:url(#SVGID_7_);}
	.st10{fill:url(#SVGID_8_);}
	.st11{fill:url(#SVGID_9_);}
	.st12{fill:url(#SVGID_10_);}
	.st13{fill:url(#SVGID_11_);}
	.st14{fill:url(#SVGID_12_);}
	.st15{fill:url(#SVGID_13_);}
	.st16{fill:url(#SVGID_14_);}
	.st17{fill:url(#SVGID_15_);}
	.st18{fill:url(#SVGID_16_);}
	.st19{fill:url(#SVGID_17_);}
	.st20{fill:url(#SVGID_18_);}
	.st21{fill:url(#SVGID_19_);}
	.st22{fill:url(#SVGID_20_);}
	.st23{fill:url(#SVGID_21_);}
	.st24{fill:url(#SVGID_22_);}
	.st25{fill:url(#SVGID_23_);}
	.st26{display:inline;fill:#CFE5FF;}
	.st27{display:inline;}
	.st28{fill:#B8E3C2;}
	.st29{fill:#9ECDBB;}
	.st30{display:inline;fill:none;stroke:#D8171C;stroke-width:2;stroke-miterlimit:10;}
	.st31{display:inline;fill:#E5EBF4;}
	.st32{fill:#D85C1C;}
	.st33{fill:#B14800;}
	.st34{fill:#E7D1AD;}
	.st35{fill:#E0BD82;}
	.st36{fill:#E7CB9E;}
	.st37{fill:#E0B695;}
	.st38{fill:#E0AB82;}
	.st39{fill:#E5EBF4;}
	.st40{fill:#393939;}
	.st41{fill:#2638A3;}
	.st42{fill:#12259A;}
	.st43{fill:#424242;}
	.st44{fill:#E5F1FF;}
	.st45{fill:none;stroke:#000000;stroke-linecap:round;stroke-miterlimit:10;}
	.st46{display:inline;fill:#D49500;}
	.st47{display:inline;fill:url(#SVGID_24_);}
	.st48{fill:#E1E3E6;}
	.st49{display:inline;fill:#FFB700;}
	.st50{display:inline;fill:#E7E7E6;}
	.st51{display:inline;fill:#FFC400;}
	.st52{fill:#FEFEFE;}
	.st53{fill:#EAF4FF;}
	.st54{fill:#606060;}
	.st55{fill:#D8171C;}
	.st56{fill:#A60006;}
	.st57{fill:url(#SVGID_25_);}
	.st58{fill:url(#SVGID_26_);}
	.st59{fill:#FFA1A1;}
	.st60{fill:#547EFD;}
	.st61{display:inline;fill:#3F69D0;}
	.st62{display:inline;fill:#F7FBFC;}
	.st63{fill:#FFB700;}
	.st64{fill:#D9D9E2;}
	.st65{fill:#3A3A5B;}
	.st66{fill:#4C4B73;}
	.st67{fill:#80B4FF;}
	.st68{opacity:0.4;}
	.st69{fill:#7398E6;}
	.st70{fill:#ECF1F9;}
	.st71{fill:#FF4D67;}
	.st72{fill:#CED1EC;}
	.st73{fill:#FF2948;}
	.st74{fill:#605E87;}
	.st75{fill:#FFB27D;}
	.st76{fill:#E98C94;}
	.st77{fill:#2C2C2C;}
	.st78{fill:#FFCCBE;}
	.st79{fill:#9B5265;}
	.st80{fill:#B66479;}
	.st81{fill:#84AAD8;}
	.st82{fill:#537AA0;}
	.st83{fill:#262A63;}
	.st84{fill:#383F7A;}
	.st85{fill:#FED677;}
</style>
<g class="st0">
	<path class="st1" d="M502.2,243.6c-0.5-62.1-51.8-112.9-111.1-131.4c-27.2-8.5-55.7-13.1-83.9-12.9   c-133.3,1-195.7,58.8-162.3,108.4C215.8,313,49.2,250.6,13.1,313.3c-18.8,32.8-7.2,72,21,105.7c34.1,41,85.3,63.8,138.5,63.4   l48.2-0.4c28.6-0.2,79.2,6.8,118.1-3.9c0.1-0.2,48-14.8,48.1-15c69.3-29,40-18,77.7-42.5c39.7-7.9,37.7-49.6,37.4-90L502.2,243.6   L502.2,243.6z"></path>
	<g class="st2">
		
			<linearGradient id="SVGID_1_" gradientUnits="userSpaceOnUse" x1="84.3" y1="358.5" x2="161.2" y2="358.5" gradientTransform="matrix(1 0 0 1 0 -14)">
			<stop offset="0" style="stop-color:#BB7AD5"></stop>
			<stop offset="1" style="stop-color:#FBFBFB"></stop>
		</linearGradient>
		<path class="st3" d="M161.2,308.1c0-0.7,0-1.3,0-2.1l-76.9,77c0.7,0,1.3,0,2.1,0L161.2,308.1z"></path>
		
			<linearGradient id="SVGID_2_" gradientUnits="userSpaceOnUse" x1="74.8913" y1="353.65" x2="160.7913" y2="353.65" gradientTransform="matrix(1 0 0 1 0 -14)">
			<stop offset="0" style="stop-color:#BB7AD5"></stop>
			<stop offset="1" style="stop-color:#FBFBFB"></stop>
		</linearGradient>
		<path class="st4" d="M160.9,298.5c0-0.6-0.1-1.2-0.2-1.8L75,382.4c0.6,0.1,1.2,0.1,1.8,0.2L160.9,298.5z"></path>
		
			<linearGradient id="SVGID_3_" gradientUnits="userSpaceOnUse" x1="28.6" y1="319.65" x2="139.1" y2="319.65" gradientTransform="matrix(1 0 0 1 0 -14)">
			<stop offset="0" style="stop-color:#BB7AD5"></stop>
			<stop offset="1" style="stop-color:#FBFBFB"></stop>
		</linearGradient>
		<path class="st5" d="M28.6,359.9c0.1,0.1,0.4,0.4,0.5,0.5s0.4,0.4,0.5,0.5l109.5-109.5c-0.1-0.1-0.4-0.4-0.5-0.5s-0.4-0.4-0.5-0.5    L28.6,359.9z"></path>
		
			<linearGradient id="SVGID_4_" gradientUnits="userSpaceOnUse" x1="95" y1="363.4" x2="160.4" y2="363.4" gradientTransform="matrix(1 0 0 1 0 -14)">
			<stop offset="0" style="stop-color:#BB7AD5"></stop>
			<stop offset="1" style="stop-color:#FBFBFB"></stop>
		</linearGradient>
		<path class="st6" d="M160,319c0.1-0.7,0.2-1.6,0.4-2.3L95,382.1c0.7-0.1,1.6-0.2,2.3-0.4L160,319z"></path>
		
			<linearGradient id="SVGID_5_" gradientUnits="userSpaceOnUse" x1="66.5" y1="348.85" x2="159.7" y2="348.85" gradientTransform="matrix(1 0 0 1 0 -14)">
			<stop offset="0" style="stop-color:#BB7AD5"></stop>
			<stop offset="1" style="stop-color:#FBFBFB"></stop>
		</linearGradient>
		<path class="st7" d="M159.7,289.9c-0.1-0.5-0.2-1.1-0.4-1.6L66.5,381c0.5,0.1,1.1,0.2,1.6,0.4L159.7,289.9z"></path>
		
			<linearGradient id="SVGID_6_" gradientUnits="userSpaceOnUse" x1="127.2" y1="373.35" x2="147.9505" y2="373.35" gradientTransform="matrix(1 0 0 1 0 -14)">
			<stop offset="0" style="stop-color:#BB7AD5"></stop>
			<stop offset="1" style="stop-color:#FBFBFB"></stop>
		</linearGradient>
		<path class="st8" d="M147.9,349l-20.7,20.7c4-2.7,7.9-5.8,11.4-9.4C142.1,356.7,145.2,353,147.9,349z"></path>
		
			<linearGradient id="SVGID_7_" gradientUnits="userSpaceOnUse" x1="58.9" y1="343.95" x2="157.6" y2="343.95" gradientTransform="matrix(1 0 0 1 0 -14)">
			<stop offset="0" style="stop-color:#BB7AD5"></stop>
			<stop offset="1" style="stop-color:#FBFBFB"></stop>
		</linearGradient>
		<path class="st9" d="M157.6,282.1c-0.1-0.5-0.4-1-0.5-1.5l-98.2,98.2c0.5,0.1,1,0.4,1.5,0.5L157.6,282.1z"></path>
		
			<linearGradient id="SVGID_8_" gradientUnits="userSpaceOnUse" x1="33.7" y1="324.35" x2="143.8" y2="324.35" gradientTransform="matrix(1 0 0 1 0 -14)">
			<stop offset="0" style="stop-color:#BB7AD5"></stop>
			<stop offset="1" style="stop-color:#FBFBFB"></stop>
		</linearGradient>
		<path class="st10" d="M33.7,364.6c0.4,0.4,0.7,0.6,1.1,0.8l109-109c-0.2-0.4-0.6-0.7-0.8-1.1L33.7,364.6z"></path>
		
			<linearGradient id="SVGID_9_" gradientUnits="userSpaceOnUse" x1="39.2" y1="329.25" x2="147.9" y2="329.25" gradientTransform="matrix(1 0 0 1 0 -14)">
			<stop offset="0" style="stop-color:#BB7AD5"></stop>
			<stop offset="1" style="stop-color:#FBFBFB"></stop>
		</linearGradient>
		<path class="st11" d="M147.9,262.1c-0.2-0.4-0.5-0.7-0.8-1.2L39.2,368.8c0.4,0.2,0.7,0.5,1.2,0.8L147.9,262.1z"></path>
		
			<linearGradient id="SVGID_10_" gradientUnits="userSpaceOnUse" x1="45.2" y1="334.25" x2="151.7" y2="334.25" gradientTransform="matrix(1 0 0 1 0 -14)">
			<stop offset="0" style="stop-color:#BB7AD5"></stop>
			<stop offset="1" style="stop-color:#FBFBFB"></stop>
		</linearGradient>
		<path class="st12" d="M151.7,268.3c-0.2-0.4-0.5-0.8-0.7-1.2L45.2,372.7c0.4,0.2,0.8,0.5,1.2,0.7L151.7,268.3z"></path>
		
			<linearGradient id="SVGID_11_" gradientUnits="userSpaceOnUse" x1="51.8" y1="339.25" x2="154.9" y2="339.25" gradientTransform="matrix(1 0 0 1 0 -14)">
			<stop offset="0" style="stop-color:#BB7AD5"></stop>
			<stop offset="1" style="stop-color:#FBFBFB"></stop>
		</linearGradient>
		<path class="st13" d="M154.9,275c-0.2-0.5-0.4-1-0.6-1.3L51.8,376.2c0.5,0.2,1,0.4,1.3,0.6L154.9,275z"></path>
		
			<linearGradient id="SVGID_12_" gradientUnits="userSpaceOnUse" x1="107.8506" y1="368.35" x2="157.3506" y2="368.35" gradientTransform="matrix(1 0 0 1 0 -14)">
			<stop offset="0" style="stop-color:#BB7AD5"></stop>
			<stop offset="1" style="stop-color:#FBFBFB"></stop>
		</linearGradient>
		<path class="st14" d="M156.4,332.6c0.4-1,0.7-2.1,1.1-3L108,379.1c1-0.4,2.1-0.7,3-1.1L156.4,332.6z"></path>
		
			<linearGradient id="SVGID_13_" gradientUnits="userSpaceOnUse" x1="12.8" y1="300" x2="115.8" y2="300" gradientTransform="matrix(1 0 0 1 0 -14)">
			<stop offset="0" style="stop-color:#BB7AD5"></stop>
			<stop offset="1" style="stop-color:#FBFBFB"></stop>
		</linearGradient>
		<path class="st15" d="M115.8,235.1c-0.5-0.2-1-0.4-1.3-0.6L12.8,336.2c0.2,0.5,0.4,1,0.6,1.3L115.8,235.1z"></path>
		
			<linearGradient id="SVGID_14_" gradientUnits="userSpaceOnUse" x1="16" y1="304.85" x2="122.4" y2="304.85" gradientTransform="matrix(1 0 0 1 0 -14)">
			<stop offset="0" style="stop-color:#BB7AD5"></stop>
			<stop offset="1" style="stop-color:#FBFBFB"></stop>
		</linearGradient>
		<path class="st16" d="M122.4,238.4c-0.4-0.2-0.8-0.5-1.2-0.7L16,342.8c0.2,0.4,0.5,0.8,0.7,1.2L122.4,238.4z"></path>
		
			<linearGradient id="SVGID_15_" gradientUnits="userSpaceOnUse" x1="19.7" y1="309.85" x2="128.4" y2="309.85" gradientTransform="matrix(1 0 0 1 0 -14)">
			<stop offset="0" style="stop-color:#BB7AD5"></stop>
			<stop offset="1" style="stop-color:#FBFBFB"></stop>
		</linearGradient>
		<path class="st17" d="M128.4,242.3c-0.4-0.2-0.7-0.5-1.2-0.8L19.7,349c0.2,0.4,0.5,0.7,0.8,1.2L128.4,242.3z"></path>
		
			<linearGradient id="SVGID_16_" gradientUnits="userSpaceOnUse" x1="23.9" y1="314.85" x2="134" y2="314.85" gradientTransform="matrix(1 0 0 1 0 -14)">
			<stop offset="0" style="stop-color:#BB7AD5"></stop>
			<stop offset="1" style="stop-color:#FBFBFB"></stop>
		</linearGradient>
		<path class="st18" d="M134,246.6c-0.4-0.4-0.7-0.6-1.1-0.8l-109,109c0.2,0.4,0.6,0.7,0.8,1.1L134,246.6z"></path>
		
			<linearGradient id="SVGID_17_" gradientUnits="userSpaceOnUse" x1="7.2" y1="275.6" x2="72.6" y2="275.6" gradientTransform="matrix(1 0 0 1 0 -14)">
			<stop offset="0" style="stop-color:#BB7AD5"></stop>
			<stop offset="1" style="stop-color:#FBFBFB"></stop>
		</linearGradient>
		<path class="st19" d="M72.6,228.9c-0.7,0.1-1.6,0.2-2.3,0.4L7.6,292c-0.1,0.7-0.2,1.6-0.4,2.3L72.6,228.9z"></path>
		
			<linearGradient id="SVGID_18_" gradientUnits="userSpaceOnUse" x1="19.6765" y1="265.8" x2="40.4273" y2="265.8" gradientTransform="matrix(1 0 0 1 0 -14)">
			<stop offset="0" style="stop-color:#BB7AD5"></stop>
			<stop offset="1" style="stop-color:#FBFBFB"></stop>
		</linearGradient>
		<path class="st20" d="M40.4,241.4c-4,2.7-7.9,5.8-11.4,9.4c-3.5,3.5-6.7,7.4-9.4,11.4L40.4,241.4z"></path>
		
			<linearGradient id="SVGID_19_" gradientUnits="userSpaceOnUse" x1="10" y1="295.2" x2="108.8" y2="295.2" gradientTransform="matrix(1 0 0 1 0 -14)">
			<stop offset="0" style="stop-color:#BB7AD5"></stop>
			<stop offset="1" style="stop-color:#FBFBFB"></stop>
		</linearGradient>
		<path class="st21" d="M108.8,232.3c-0.5-0.1-1-0.4-1.5-0.5L10,329.1c0.1,0.5,0.4,1,0.5,1.5L108.8,232.3z"></path>
		
			<linearGradient id="SVGID_20_" gradientUnits="userSpaceOnUse" x1="6.3" y1="280.7" x2="83.2" y2="280.7" gradientTransform="matrix(1 0 0 1 0 -14)">
			<stop offset="0" style="stop-color:#BB7AD5"></stop>
			<stop offset="1" style="stop-color:#FBFBFB"></stop>
		</linearGradient>
		<path class="st22" d="M83.2,228.2c-0.7,0-1.3,0-2.1,0L6.3,303.1c0,0.7,0,1.3,0,2.1L83.2,228.2z"></path>
		
			<linearGradient id="SVGID_21_" gradientUnits="userSpaceOnUse" x1="10.2" y1="270.75" x2="59.729" y2="270.75" gradientTransform="matrix(1 0 0 1 0 -14)">
			<stop offset="0" style="stop-color:#BB7AD5"></stop>
			<stop offset="1" style="stop-color:#FBFBFB"></stop>
		</linearGradient>
		<path class="st23" d="M11.3,278.5c-0.4,1-0.7,2.1-1.1,3L59.8,232c-1,0.4-2.1,0.7-3,1.1L11.3,278.5z"></path>
		
			<linearGradient id="SVGID_22_" gradientUnits="userSpaceOnUse" x1="8" y1="290.3" x2="101" y2="290.3" gradientTransform="matrix(1 0 0 1 0 -14)">
			<stop offset="0" style="stop-color:#BB7AD5"></stop>
			<stop offset="1" style="stop-color:#FBFBFB"></stop>
		</linearGradient>
		<path class="st24" d="M101,230.2c-0.5-0.1-1.1-0.2-1.6-0.4L8,321.2c0.1,0.5,0.2,1.1,0.4,1.6L101,230.2z"></path>
		
			<linearGradient id="SVGID_23_" gradientUnits="userSpaceOnUse" x1="6.7" y1="285.45" x2="92.7" y2="285.45" gradientTransform="matrix(1 0 0 1 0 -14)">
			<stop offset="0" style="stop-color:#BB7AD5"></stop>
			<stop offset="1" style="stop-color:#FBFBFB"></stop>
		</linearGradient>
		<path class="st25" d="M92.7,228.7c-0.6-0.1-1.2-0.1-1.8-0.2L6.7,312.6c0,0.6,0.1,1.2,0.2,1.8L92.7,228.7z"></path>
	</g>
	<circle class="st26" cx="75.6" cy="227.3" r="17.8"></circle>
	<circle class="st26" cx="20.9" cy="478" r="9.2"></circle>
	<g class="st27">
		<path class="st28" d="M160.5,262.4c-3.1-0.8-8.1-8.8-12.2-9.2c-4.1-0.4-9.1,4.5-13.3,1.5c-4.2-3-4.6-16.1-9.3-18.8    c-4.8-2.7-8.4,0.4-10.2-2.8c-1.8-3,0.6-13.6-3.8-17.3c-4.4-3.8-7.9-2.4-8.7-5.7c-0.8-3.3,1.7-8.4-1.8-13.2s-4.8-11,0.4-8.1    c5.2,2.9,9.8,6.5,15,5.3s4.2,7.8,8,9.9c3.8,2.1,9.2-1.5,12.2,0.5s3.3,12,5.8,13s12.6-6.1,17.2-4.1c4.7,1.9-1.1,14.7,4,16.6    c5.1,1.9,11.1,4.4,11.1,4.4L160.5,262.4z"></path>
		<path class="st29" d="M109.3,200.6c0,0,5.7,18.6,56.3,51.1l3.3-5.2C168.9,246.6,127.8,228.7,109.3,200.6z"></path>
	</g>
	<path class="st30" d="M105.5,296.9c-11.3,7.5-17.7,44.9,4.1,45.7c15.1,0.5,21.1-13.1,15.4-17.3c-14.2-10.7-30.9,26.8-14.2,34.3   c7.9,3.5,15.7-2.1,24.3-9.1c13.1-10.5,27.6-24.1,45.4-11.7"></path>
	<ellipse class="st31" cx="357.8" cy="413.1" rx="22" ry="5.3"></ellipse>
	<ellipse class="st31" cx="232.2" cy="434.2" rx="22" ry="5.3"></ellipse>
	<path class="st31" d="M423.5,401.5H172.9c-8.7,0-17.4-1.3-25.8-3.9l-39-11.9h384l-44.9,12.5C439.5,400.4,431.5,401.5,423.5,401.5z"></path>
	<g class="st27">
		<path class="st32" d="M473.3,174.6c-5-0.5-12.2-0.2-22.4,1.5c-5.7,1-10.5,4.4-13.6,9.3c-5.2,8.7-13.4,22.5-15.1,27.2    c0,0-14.4-2.3-22.6-7.3l-3.6,7.3c0,0,8.4,5.8,32.8,13.8c0,0,7.3-10.9,11.1-21.7c0,0-0.8,5.9,1.9,16.3c2.2,8.2-2.9,40.6-2.9,40.6    l53.3-1.9l-4.4-32.2l6.4-8.4c1.8-2.3,2.5-5.3,2.1-8.2c-1-6.2-3.4-17.2-9.1-27.4C484.4,178.6,479.2,175.1,473.3,174.6z"></path>
		<path class="st33" d="M482.7,213.9l-1.9-13.6c0,0-2.7,17.9-3.8,20L482.7,213.9z"></path>
		<path class="st34" d="M462.8,231.4c-2.7,1-9.7,3.1-9.1,4.6c0.4,0.8,5.3-1.1,5.8-0.5c0.4,0.5-1.3,3.1-4.5,4.7    c-2.4,1.3-4.1,1-4.2,2.2c-0.1,1.5,7.1,1.3,9,1.1c1-0.1,3.3-0.7,4.8-2.1c1.9-1.6,2.3-2.5,3.3-3.4c2.2-2.1,4.5-3.4,4.5-3.4l-3.6-5.8    C468.8,228.8,464.2,230.9,462.8,231.4z"></path>
		<path class="st35" d="M455.4,165.5l1.1,13c0,0,7,6.1,13.1-0.7l-3.4-15.6L455.4,165.5z"></path>
		<path class="st36" d="M474.4,130.9c3.3,3.3,5.9,8.1,5.9,14.9c0,10.1-11.9,24.1-22.6,24.1c-9.6,0-17.3-9.8-17.3-21.9    c0-9.3,4.6-17.1,11-20.5C460.3,122.7,470,126.5,474.4,130.9z"></path>
		<g>
			<path class="st37" d="M451.6,152.1c-0.4,1.1-0.7,2.1-0.8,3c-0.1,0.5,0,1,0.2,1.3c0.2,0.4,0.7,0.6,1.2,0.7c-0.5,0.1-1.2,0-1.6-0.5     c-0.5-0.5-0.5-1.1-0.5-1.7c0.1-0.6,0.2-1.1,0.5-1.6C451,152.9,451.3,152.4,451.6,152.1z"></path>
		</g>
		<ellipse class="st38" cx="444.2" cy="154.2" rx="2.4" ry="1.7"></ellipse>
		<ellipse class="st38" cx="462.2" cy="154.2" rx="2.9" ry="1.9"></ellipse>
		<ellipse class="st39" cx="458.8" cy="391.3" rx="43.4" ry="7.5"></ellipse>
		<g>
			<path class="st40" d="M490,377.2c0,0,2.5,0.5,2.2,4.2c-0.4,3.8-0.2,8.8-0.2,8.8l-1.1,0.4c0,0-0.6-4.5-1-4.6c-0.4,0-2.4,4.6-5,5.6     c-2.5,1.1-8.7,3-10.5,1.2c-1.9-2.1,2.4-3.9,4.6-5.2C481.4,386.5,490,377.2,490,377.2z"></path>
			<path class="st36" d="M481.1,365.1c0,0,2.7,10.4,1.3,14.8c-1.3,4.5-4.7,8.2-5.1,9.1c-0.4,0.8,4.7,0.4,6.4-1.2s6.5-9.6,6.3-10.7     s-1.1-8.2-0.7-13.7L481.1,365.1z"></path>
		</g>
		<g>
			<path class="st40" d="M448.5,378.3c0,0,2.4,0.8,1.6,4.5s-1.5,8.7-1.5,8.7l-1.1,0.2c0,0,0-4.6-0.2-4.6c-0.4-0.1-2.9,4.2-5.4,5     c-2.7,0.7-9.2,1.8-10.8-0.2c-1.7-2.3,2.9-3.5,5.3-4.5C438.7,386.4,448.5,378.3,448.5,378.3z"></path>
			<path class="st36" d="M441.2,365.1c0,0,1.2,10.7-0.6,14.9c-1.8,4.2-5.7,7.5-6.2,8.4c-0.5,0.8,4.6,1,6.5-0.4     c1.9-1.3,7.8-8.6,7.6-9.8c-0.1-1.1,0.1-8.4,1.1-13.7L441.2,365.1z"></path>
		</g>
		<path class="st41" d="M438.9,261.8c0,0-4.5,45.2-5.1,60.2c-0.6,13.3,5.7,54.5,5.7,54.5l10.8-1c0,0,1.2-39.5,4.4-52.7    c2.3-10.1,9.3-40.1,9.3-40.1s3.6,28.6,4.7,38c1.7,13.6,10.7,55.3,10.7,55.3l12.7-0.6c0,0-3.4-42.3-3.1-56.3    c0.2-14.9,3.4-59.5,3.4-59.5L438.9,261.8z"></path>
		<path class="st42" d="M438.9,261.8c0,0-4.5,45.2-5.1,60.2c-0.6,13.3,5.7,54.5,5.7,54.5l10.8-1c0,0,1.2-39.5,4.4-52.7    c2.3-10.1,9.3-40.1,9.3-40.1s-6.2-7.5-8.1-21.6L438.9,261.8z"></path>
		<path class="st43" d="M481.8,146.7c0,0-2.4,7.4-13.9,0.7c-11.6-6.7-18.9-14.7-18.9-14.7s-3.8,9.7-9.7,13.6c0,0,0.4-6.7,1.5-10.3    c1.2-3.9,4.7-12,17-12.5C485.4,122.5,481.8,146.7,481.8,146.7z"></path>
		<path class="st43" d="M480,141.5c0,0,6.4-3.5,3.9-10.8c-2.4-7.3-12.1-11.1-17.1-4.7"></path>
		<ellipse class="st43" cx="457.3" cy="147.4" rx="1" ry="1.6"></ellipse>
		<ellipse class="st43" cx="446.9" cy="148.1" rx="1.1" ry="1.6"></ellipse>
		<path class="st44" d="M457.3,159.4c0,0-5,2.3-9,0.4C448.4,161.9,453.4,165.9,457.3,159.4z"></path>
		<path d="M472.2,152.9c-1.3,4,0.1,8.1,3.3,9c3.1,1,6.8-1.6,8.1-5.7c1.3-4.1-0.1-8.1-3.3-9C477.2,146.2,473.5,148.8,472.2,152.9z"></path>
		<g>
			<g>
				<path class="st45" d="M476.2,159.2c0,0-5.8,8.6-17.8,6.3"></path>
				<g>
					<ellipse transform="matrix(0.1796 -0.9837 0.9837 0.1796 213.246 586.5669)" cx="458.3" cy="165.4" rx="1" ry="1"></ellipse>
				</g>
			</g>
		</g>
		<path class="st45" d="M480.7,151.8c0,0,3.4-30.5-20.8-30.8c-5.6,0-15.5,2.1-18.3,11.7"></path>
	</g>
	<path class="st46" d="M434.1,207.5L434.1,207.5L317,142.7c-12.1-6.7-26.9-6.7-39,0l-117.1,64.8l0,0c-5.2,2.8-8.6,8.2-8.6,14.5v163   c0,9.2,7.4,16.6,16.6,16.6h257.3c9.2,0,16.6-7.4,16.6-16.6V222C442.8,215.7,439.3,210.3,434.1,207.5z"></path>
	<g class="st27">
		<path class="st28" d="M316.8,136.4c1.3-3,10.1-6.7,11-10.7c1-4-3-9.7,0.7-13.3c3.6-3.6,16.7-2.1,20-6.3c3.4-4.4,1-8.4,4.4-9.7    c3.4-1.3,13.3,2.7,17.7-1c4.4-3.6,3.6-7.4,7-7.6c3.4-0.4,8,3,13.3,0.4c5.3-2.7,11.6-3,8,1.7s-8,8.7-7.6,14s-8.4,3-11,6.3    c-2.7,3.4,0,9.3-2.3,12s-12.4,1.3-13.7,3.6c-1.3,2.3,4,13.3,1.3,17.7c-2.7,4.4-14.3-3.4-17,1.3s-6.1,10.3-6.1,10.3L316.8,136.4z"></path>
		<path class="st29" d="M385.7,95.5c0,0-19.4,2.7-59.3,47.7l4.7,4C331.1,147.1,355.1,109.4,385.7,95.5z"></path>
	</g>
	
		<linearGradient id="SVGID_24_" gradientUnits="userSpaceOnUse" x1="297.6" y1="374.9" x2="297.6" y2="146.3" gradientTransform="matrix(1 0 0 1 0 -14)">
		<stop offset="0" style="stop-color:#CAC7C2"></stop>
		<stop offset="0.2162" style="stop-color:#DEDCD9"></stop>
		<stop offset="0.4682" style="stop-color:#EEEDEC"></stop>
		<stop offset="0.7268" style="stop-color:#F8F8F7"></stop>
		<stop offset="1" style="stop-color:#FBFBFB"></stop>
	</linearGradient>
	<path class="st47" d="M409.6,360.9h-224V147.2c0-8.2,6.7-14.9,14.9-14.9h194.2c8.2,0,14.9,6.7,14.9,14.9V360.9z"></path>
	<g class="st27">
		<rect x="213.9" y="166.1" class="st48" width="167.2" height="1.3"></rect>
		<rect x="213.9" y="184.5" class="st48" width="167.2" height="1.3"></rect>
		<rect x="213.9" y="203" class="st48" width="167.2" height="1.3"></rect>
		<rect x="213.9" y="221.6" class="st48" width="167.2" height="1.3"></rect>
		<rect x="213.9" y="240" class="st48" width="167.2" height="1.3"></rect>
		<rect x="213.9" y="258.5" class="st48" width="167.2" height="1.3"></rect>
		<rect x="213.9" y="277" class="st48" width="167.2" height="1.3"></rect>
		<rect x="213.9" y="295.4" class="st48" width="167.2" height="1.3"></rect>
	</g>
	<path class="st49" d="M418.4,239.7L296.1,362c-0.2,0.2-0.7,0.2-1,0L172.9,239.7c-5.4-5.4-12.8-8.5-20.6-8.5l0,0v153.9   c0,9.2,7.4,16.6,16.6,16.6h257.3c9.2,0,16.6-7.4,16.6-16.6v-154H439C431.3,231.1,423.9,234.3,418.4,239.7z"></path>
	<path class="st50" d="M338.9,319.2l-42.7,42.7c-0.2,0.2-0.7,0.2-1,0L253,319.8l-100.8,59.3v5.8c0,9.2,7.4,16.6,16.6,16.6h257.3   c9.2,0,16.6-7.4,16.6-16.6v-5.2L338.9,319.2z"></path>
	<path class="st51" d="M442.8,385v-5l-125.7-69.5c-12.1-6.7-26.9-6.7-39,0L152.4,380v5c0,9.2,7.4,16.6,16.6,16.6h257.3   C435.3,401.6,442.8,394.2,442.8,385z"></path>
	<g class="st27">
		<path class="st52" d="M378.8,382c0,3,0.5-1.9,10.1-1.9c7.3,0,0.6,18.9-10.8,19.5c0,0-2.4,0.8-1.9,3.9s20.8-4.1,20.8-20.9    C396.9,371.2,378.8,373.5,378.8,382z"></path>
		<path class="st52" d="M330.3,370.9c0,0,1.3,43.8,28.9,43.8c24.9,0,27.9-43.8,27.9-43.8H330.3z"></path>
		<path class="st53" d="M338.8,375.7c-2.8-0.4-4.7-0.8-6.1-1.2c1.1,10.7,5.9,40.3,26.6,40.2c1.3,0,2.7-0.1,3.9-0.4    C344.7,411,340,386.4,338.8,375.7z"></path>
		<ellipse class="st53" cx="358.6" cy="370.9" rx="28.3" ry="4.5"></ellipse>
		<ellipse class="st52" cx="358.6" cy="370.9" rx="25.3" ry="3.5"></ellipse>
		<path class="st54" d="M339,373.1c4.6,0.8,11.7,1.3,19.6,1.3s15-0.5,19.6-1.3c-4.6-0.8-11.7-1.3-19.6-1.3    C350.8,371.7,343.6,372.2,339,373.1z"></path>
	</g>
	<g class="st27">
		<path class="st55" d="M184.8,181.8c-26,2.1-51.3,28-56.2,33.2c-5.1,5.2-29.7,31.6-30.5,57.8c-0.5,15.3,10.1,30,16.5,35l29.4-36.9    c0,0-4.7-4.7-15.1-7.6c0,0,2.5-13.2,18.4-29.9c15-15.7,29.4-20.3,29.4-20.3c3.4,10.2,8.4,14.8,8.4,14.8l35.5-31.1    C215.4,190.4,200.1,180.8,184.8,181.8z"></path>
		<g>
			<path class="st56" d="M143.7,270.6l-5.2-3.9c-3.5-2.7-12.7,3.4-20.8,13.7c-8.1,10.3-11.7,20.8-8.2,23.5l5.2,3.9L143.7,270.6z"></path>
			
				<ellipse transform="matrix(0.6152 -0.7884 0.7884 0.6152 -178.3328 213.1837)" class="st56" cx="129.2" cy="289.3" rx="23.6" ry="8"></ellipse>
			<g>
				
					<linearGradient id="SVGID_25_" gradientUnits="userSpaceOnUse" x1="112.7536" y1="302.9773" x2="144.0599" y2="302.9773" gradientTransform="matrix(1 0 0 1 0 -14)">
					<stop offset="0" style="stop-color:#000000"></stop>
					<stop offset="0.4893" style="stop-color:#C4171C"></stop>
					<stop offset="1" style="stop-color:#000000"></stop>
				</linearGradient>
				<path class="st57" d="M114.6,307.9c-1-0.6-1.3-1.8-1.5-2.9c-0.1-0.6,0-1.1,0-1.7c0.1-0.6,0.1-1.1,0.2-1.7      c0.5-2.2,1.2-4.2,2.1-6.3c1.8-4,4.2-7.8,6.9-11.3c2.8-3.5,5.8-6.8,9.3-9.4c1.7-1.3,3.6-2.7,5.6-3.5c0.5-0.2,1.1-0.4,1.6-0.6      c0.6-0.1,1.1-0.4,1.7-0.4c1.1-0.1,2.3-0.1,3.1,0.7c-1-0.6-2.1-0.6-3.1-0.4c-0.5,0.1-1,0.4-1.6,0.5c-0.5,0.2-1,0.5-1.5,0.7      c-1.9,1-3.6,2.3-5.3,3.8c-3.3,2.9-6.2,6.1-9,9.4c-2.7,3.4-5.1,7-7,10.9c-1,1.9-1.8,4-2.3,6.1c-0.1,0.5-0.2,1.1-0.4,1.6      c0,0.5-0.1,1.1-0.1,1.6C113.5,306,113.8,307.1,114.6,307.9z"></path>
			</g>
		</g>
		<g>
			<path class="st56" d="M220.8,196.6l-4.5-4.8c-2.9-3.3-13.2,1-23,9.6s-15.4,18.3-12.5,21.6l4.5,4.8L220.8,196.6z"></path>
			
				<ellipse transform="matrix(0.7513 -0.6599 0.6599 0.7513 -89.6184 186.7642)" class="st56" cx="203" cy="212.3" rx="23.6" ry="8"></ellipse>
			<g>
				
					<linearGradient id="SVGID_26_" gradientUnits="userSpaceOnUse" x1="183.966" y1="225.6778" x2="221.2472" y2="225.6778" gradientTransform="matrix(1 0 0 1 0 -14)">
					<stop offset="0" style="stop-color:#000000"></stop>
					<stop offset="0.4893" style="stop-color:#C4171C"></stop>
					<stop offset="1" style="stop-color:#000000"></stop>
				</linearGradient>
				<path class="st58" d="M185.3,227.9c-0.8-0.8-1-2.1-0.8-3.1c0-0.6,0.2-1.1,0.2-1.7c0.1-0.5,0.4-1.1,0.5-1.6      c0.8-2.1,1.9-4,3.3-5.8c2.5-3.6,5.6-6.9,9-9.8c3.4-2.9,6.9-5.6,10.9-7.6c1.9-1,4-1.9,6.2-2.4c0.5-0.1,1.1-0.2,1.7-0.4      c0.6,0,1.1-0.1,1.7,0c1.1,0,2.3,0.4,3,1.2c-0.8-0.8-1.9-1-3-1c-0.5,0-1.1,0.1-1.6,0.2c-0.5,0.1-1.1,0.2-1.6,0.5      c-2.1,0.6-4,1.6-5.9,2.7c-3.8,2.2-7.3,4.8-10.5,7.6c-3.3,2.9-6.3,6.1-9,9.4c-1.3,1.7-2.5,3.5-3.4,5.4c-0.2,0.5-0.4,1-0.6,1.5      c-0.1,0.5-0.4,1-0.4,1.6C184.6,225.8,184.6,226.9,185.3,227.9z"></path>
			</g>
		</g>
		<path class="st59" d="M102,259.6c0,0,17.4-48.6,66.5-71.4C168.4,188.1,129.3,206.1,102,259.6z"></path>
		<path class="st56" d="M176.5,211.5c0,0-13.9,1.6-34.3,20.1c-14.4,13.1-21.2,31.5-21.2,31.5c1.8-0.5,4.1-0.4,5.7-0.2    C142.2,223.4,176.6,212,176.5,211.5C176.3,209.6,176.5,211.5,176.5,211.5z"></path>
	</g>
	<g class="st27">
		<path class="st60" d="M154.3,146.7c0.2,1.2,0.5,2.1,0.7,2.8s0.5,1.2,0.8,1.5c0.4,0.4,0.6,0.5,1,0.5s0.7-0.1,1.1-0.4    c0.7-0.4,1.2-1,1.5-1.9c0.2-1,0.4-2.1,0.4-3.3c-0.1-1.2-0.4-2.7-0.8-4.1c-0.5-1.5-1.1-3-1.9-4.6c-1-1.8-2.1-3.3-3.3-4.5    c-1.2-1.1-2.5-1.9-4-2.4s-3-0.6-4.6-0.4c-1.6,0.2-3.3,0.8-5,1.7c-2.3,1.2-4.2,2.9-5.6,4.8c-1.5,2.1-2.4,4.2-2.9,6.8    c-0.5,2.5-0.5,5.1,0,7.9c0.5,2.8,1.5,5.6,2.8,8.2c1.2,2.3,2.7,4.2,4.2,5.7c1.6,1.5,3.3,2.4,5,3c1.8,0.6,3.6,0.7,5.6,0.6    c1.9-0.2,3.9-0.8,5.9-1.9c1.3-0.7,2.4-1.3,3.4-2.1c1-0.7,1.8-1.5,2.5-2.1s1.3-1.3,1.8-1.8c0.5-0.6,0.8-1.1,1.1-1.5    c0.4-0.5,0.7-0.8,1.1-1.1c0.4-0.2,0.6-0.4,1-0.4s0.6,0,0.8,0.1s0.5,0.4,0.7,0.5l1.7,1.8c-0.6,1.1-1.2,2.1-2.1,3.1    c-0.7,1.1-1.7,2.1-2.7,3c-1,1-2.2,1.9-3.4,2.9s-2.7,1.8-4.1,2.5c-2.8,1.5-5.6,2.4-8.2,2.7c-2.8,0.2-5.3,0-7.8-0.8    c-2.4-0.8-4.7-2.2-6.8-4c-2.1-1.9-3.9-4.2-5.4-7.1c-1.2-2.2-2.1-4.5-2.5-6.8c-0.6-2.3-0.8-4.7-0.8-7s0.2-4.6,0.8-6.9    c0.6-2.2,1.3-4.4,2.4-6.3c1.1-1.9,2.4-3.8,4-5.3c1.6-1.6,3.4-2.9,5.4-4c2.2-1.2,4.5-1.8,6.8-2.1c2.3-0.2,4.6,0,6.8,0.6    s4.2,1.8,6.1,3.3c1.9,1.6,3.5,3.5,4.7,6.1c1.2,2.2,1.9,4.5,2.3,6.8c0.4,2.3,0.4,4.5,0.1,6.5c-0.4,2.1-1.1,3.9-2.1,5.4    c-1.1,1.7-2.4,2.9-4.2,3.9c-0.5,0.2-1,0.5-1.6,0.6c-0.5,0.1-1.1,0.1-1.6,0.1s-1.1-0.2-1.6-0.5c-0.5-0.2-1-0.6-1.5-1.1    c-0.5,1.8-1.2,3.1-2.1,4.2s-1.9,1.9-3.1,2.5c-1,0.5-1.8,0.7-2.7,0.8c-0.8,0-1.7-0.1-2.4-0.5s-1.5-0.8-2.2-1.6    c-0.6-0.7-1.2-1.5-1.7-2.4c-0.6-1.1-1-2.3-1.3-3.5c-0.4-1.3-0.5-2.7-0.5-4s0.1-2.8,0.5-4.1s0.8-2.8,1.6-4c0.7-1.3,1.7-2.5,2.9-3.6    s2.5-2.2,4.2-3c0.7-0.4,1.5-0.7,2.1-1c0.6-0.2,1.2-0.5,1.8-0.6s1.1-0.2,1.6-0.4c0.5-0.1,1.1-0.1,1.6-0.1L154.3,146.7z     M147.4,142.1c-0.4,0.1-0.7,0.4-1.2,0.5c-0.8,0.5-1.6,1.1-2.2,2.1c-0.6,1-1,1.9-1.2,3.1c-0.2,1.2-0.2,2.4-0.1,3.6    c0.1,1.3,0.6,2.5,1.2,3.6c0.8,1.6,1.8,2.2,2.9,1.6c0.4-0.1,0.6-0.4,1-0.7c0.2-0.4,0.5-0.7,0.7-1.2c0.1-0.5,0.2-1.1,0.2-1.7    c0-0.6,0-1.5-0.2-2.3L147.4,142.1z"></path>
	</g>
	<circle class="st49" cx="233" cy="112.3" r="5.4"></circle>
	<circle class="st49" cx="115.8" cy="377.8" r="2.8"></circle>
	<circle class="st61" cx="234.1" cy="399.9" r="35.6"></circle>
	<path class="st62" d="M239.7,385.3c4.5,0,8.1-3.6,8.1-8.1s-3.6-8.1-8.1-8.1s-8.1,3.6-8.1,8.1C231.6,381.7,235.2,385.3,239.7,385.3z    M236.6,423.1c-2.8-2.5,10.4-24.7,8.7-31.8c-1.2-5.2-22.4-1.8-22.5-0.2c0,0,6.1-0.7,7.1,2.1c1.1,2.8-7.1,19.7-8.7,26.2   c-1.6,6.4,5.7,8.5,10.4,8.5c5.7,0,14.8-3.9,14.5-5.7C246,420.3,239.5,425.6,236.6,423.1z"></path>
	<g class="st27">
		<path class="st63" d="M436.6,117.3v-0.7c0-5.7-4.6-10.4-10.4-10.4h-11.4c-5.7,0-10.4,4.6-10.4,10.4v0.7c0,5.7,4.6,10.4,10.4,10.4    h11.4c0.1,0,0.2,0,0.4,0c1.5,2.3,4.2,5,9.3,5.3c0,0-3.9-1.9-4.6-6.5C434.6,124.7,436.6,121.3,436.6,117.3z"></path>
		<circle class="st52" cx="414.3" cy="117.1" r="1.7"></circle>
		<circle class="st52" cx="420.6" cy="117.1" r="1.7"></circle>
		<circle class="st52" cx="427" cy="117.1" r="1.7"></circle>
	</g>
</g>
<g>
	<path class="st64" d="M47.8,303.8c0,0-60.2-70.7-10.2-147.3c44.4-68,96.1-63.3,134-35.7c16.2,11.7,62.8,1.4,102.4-67.7   c54.1-94.3,241.5-37.1,207.4,108c-16.5,70.2,50.3,72.8,16.3,142.9L47.8,303.8z"></path>
	<g>
		<path class="st65" d="M329.8,303.2h-54.9c-17.8,0-32.4-14.6-32.4-32.4V108.5c0-17.8,14.6-32.4,32.4-32.4h54.9    c17.8,0,32.4,14.6,32.4,32.4v162.3C362.2,288.6,347.6,303.2,329.8,303.2z"></path>
		<path class="st66" d="M368.5,82.3v214.8c0,3.4-2.8,6.1-6.1,6.1H255c-3.4,0-6.1-2.8-6.1-6.1V82.3c0-3.4,2.8-6.1,6.1-6.1h107.4    C365.7,76.2,368.5,78.9,368.5,82.3z"></path>
		<g>
			<path class="st65" d="M326.2,84.8h-31.1c-0.7,0-1.2-0.5-1.2-1.2l0,0c0-0.7,0.5-1.2,1.2-1.2h31.1c0.7,0,1.2,0.5,1.2,1.2l0,0     C327.4,84.2,326.9,84.8,326.2,84.8z"></path>
			<path class="st65" d="M289.6,84.8L289.6,84.8c-0.7,0-1.2-0.5-1.2-1.2l0,0c0-0.7,0.5-1.2,1.2-1.2l0,0c0.7,0,1.2,0.5,1.2,1.2l0,0     C290.8,84.2,290.3,84.8,289.6,84.8z"></path>
		</g>
		<path class="st65" d="M318,290.6c0,2.1-0.9,4.1-2.3,5.5c-1.4,1.4-3.4,2.3-5.5,2.3c-4.3,0-7.8-3.5-7.8-7.8c0-2.8,1.4-5.2,3.6-6.6    c1.2-0.8,2.6-1.2,4.2-1.2C314.5,282.8,318,286.3,318,290.6z"></path>
		<rect x="256" y="90.2" class="st67" width="106.1" height="188.8"></rect>
		<path class="st65" d="M315.7,296.1c-1.4,1.4-3.4,2.3-5.5,2.3c-4.3,0-7.8-3.5-7.8-7.8c0-2.8,1.4-5.2,3.6-6.6    C306.7,287.4,309,292.9,315.7,296.1z"></path>
	</g>
	<g class="st68">
		<g>
			<g>
				<path class="st65" d="M320.4,304.4h-54.9c-17.8,0-32.4-14.6-32.4-32.4V114.8c0-17.8,14.6-32.4,32.4-32.4h54.9      c17.8,0,32.4,14.6,32.4,32.4V272C352.8,289.8,338.2,304.4,320.4,304.4z"></path>
			</g>
			<g>
				<path class="st65" d="M359.1,88.4v209.9c0,3.3-2.8,6-6.1,6H245.6c-3.4,0-6.1-2.7-6.1-6V88.4c0-3.3,2.8-6,6.1-6H353      C356.3,82.5,359.1,85.1,359.1,88.4z"></path>
			</g>
			<g>
				<g>
					<path class="st65" d="M316.8,90.9h-31.1c-0.7,0-1.2-0.5-1.2-1.2l0,0c0-0.7,0.5-1.2,1.2-1.2h31.1c0.7,0,1.2,0.5,1.2,1.2l0,0       C318,90.3,317.5,90.9,316.8,90.9z"></path>
				</g>
				<g>
					<path class="st65" d="M280.2,90.9L280.2,90.9c-0.7,0-1.2-0.5-1.2-1.2l0,0c0-0.7,0.5-1.2,1.2-1.2l0,0c0.7,0,1.2,0.5,1.2,1.2l0,0       C281.4,90.3,280.9,90.9,280.2,90.9z"></path>
				</g>
			</g>
			<g>
				<path class="st65" d="M308.6,292.1c0,2.1-0.9,4-2.3,5.4c-1.4,1.4-3.4,2.3-5.5,2.3c-4.3,0-7.8-3.4-7.8-7.6c0-2.7,1.4-5.1,3.6-6.4      c1.2-0.8,2.6-1.2,4.2-1.2C305.1,284.5,308.6,287.9,308.6,292.1z"></path>
			</g>
			<g>
				<rect x="246.6" y="96.1" class="st65" width="106.1" height="184.6"></rect>
			</g>
			<g>
				<path class="st65" d="M306.3,297.5c-1.4,1.4-3.4,2.3-5.5,2.3c-4.3,0-7.8-3.4-7.8-7.6c0-2.7,1.4-5.1,3.6-6.4      C297.3,288.9,299.6,294.3,306.3,297.5z"></path>
			</g>
		</g>
	</g>
	<g>
		<path class="st65" d="M329.8,303.2h-54.9c-17.8,0-32.4-14.6-32.4-32.4V108.5c0-17.8,14.6-32.4,32.4-32.4h54.9    c17.8,0,32.4,14.6,32.4,32.4v162.3C362.2,288.6,347.6,303.2,329.8,303.2z"></path>
		<path class="st66" d="M368.5,82.3v214.8c0,3.4-2.8,6.1-6.1,6.1H255c-3.4,0-6.1-2.8-6.1-6.1V82.3c0-3.4,2.8-6.1,6.1-6.1h107.4    C365.7,76.2,368.5,78.9,368.5,82.3z"></path>
		<g>
			<path class="st65" d="M326.2,84.8h-31.1c-0.7,0-1.2-0.5-1.2-1.2l0,0c0-0.7,0.5-1.2,1.2-1.2h31.1c0.7,0,1.2,0.5,1.2,1.2l0,0     C327.4,84.2,326.9,84.8,326.2,84.8z"></path>
			<path class="st65" d="M289.6,84.8L289.6,84.8c-0.7,0-1.2-0.5-1.2-1.2l0,0c0-0.7,0.5-1.2,1.2-1.2l0,0c0.7,0,1.2,0.5,1.2,1.2l0,0     C290.8,84.2,290.3,84.8,289.6,84.8z"></path>
		</g>
		<path class="st65" d="M318,290.6c0,2.1-0.9,4.1-2.3,5.5c-1.4,1.4-3.4,2.3-5.5,2.3c-4.3,0-7.8-3.5-7.8-7.8c0-2.8,1.4-5.2,3.6-6.6    c1.2-0.8,2.6-1.2,4.2-1.2C314.5,282.8,318,286.3,318,290.6z"></path>
		<rect x="256" y="90.2" class="st67" width="106.1" height="188.8"></rect>
		<path class="st65" d="M315.7,296.1c-1.4,1.4-3.4,2.3-5.5,2.3c-4.3,0-7.8-3.5-7.8-7.8c0-2.8,1.4-5.2,3.6-6.6    C306.7,287.4,309,292.9,315.7,296.1z"></path>
	</g>
	<path class="st69" d="M360.6,112.7h-0.2h-49.1h-49.4c-0.8,0-1.5,0.9-1.5,2v63.1c0,1.1,0.7,2,1.5,2h49.4h49.1h0.2   c0.8,0,1.5-0.9,1.5-2v-63.1C362.1,113.6,361.4,112.7,360.6,112.7z"></path>
	<path class="st69" d="M323.8,189.4h-0.2h-38.3h-38.5c-0.7,0-1.2,0.9-1.2,2v63.1c0,1.1,0.5,2,1.2,2h38.5h38.3h0.2   c0.7,0,1.2-0.9,1.2-2v-63.1C324.9,190.3,324.4,189.4,323.8,189.4z"></path>
	<g class="st68">
		<g>
			<g>
				<path class="st65" d="M391.9,115.3v63.1c0,1.1-0.9,2-2,2H262c-1.1,0-2-0.9-2-2v-63.1c0-1.1,0.9-2,2-2h127.8      C391,113.3,391.9,114.2,391.9,115.3z"></path>
			</g>
			<g>
				<path class="st65" d="M391.9,115.3v63.1c0,1.1-1,2-2.3,2H326v-67.1h63.6C390.8,113.3,391.9,114.2,391.9,115.3z"></path>
			</g>
			<g>
				<g>
					<path class="st65" d="M357.2,137.8h-22.5c-0.8,0-1.4-0.6-1.4-1.4l0,0c0-0.8,0.6-1.4,1.4-1.4h22.5c0.8,0,1.4,0.6,1.4,1.4l0,0       C358.6,137.2,358,137.8,357.2,137.8z"></path>
				</g>
				<g>
					<path class="st65" d="M351.4,142.1h-16.8c-0.8,0-1.4-0.6-1.4-1.4v0c0-0.8,0.6-1.4,1.4-1.4h16.8c0.8,0,1.4,0.6,1.4,1.4v0       C352.9,141.5,352.2,142.1,351.4,142.1z"></path>
				</g>
			</g>
			<g>
				<g>
					<g>
						<path class="st65" d="M335,121.8c0.5-0.7,1.2-1.1,2.1-1.1c0.9,0,1.6,0.4,2.1,1.1c0.5,0.7,0.8,1.6,0.8,2.6s-0.3,1.9-0.8,2.6        c-0.5,0.7-1.2,1.1-2.1,1.1c-0.9,0-1.6-0.4-2.1-1.1c-0.5-0.7-0.8-1.6-0.8-2.6C334.2,123.3,334.4,122.5,335,121.8z M338.6,122.3        c-0.4-0.6-0.9-0.9-1.6-0.9s-1.1,0.3-1.6,0.9c-0.4,0.6-0.6,1.3-0.6,2.1c0,0.9,0.2,1.6,0.6,2.1c0.4,0.6,0.9,0.8,1.6,0.8        c0.6,0,1.2-0.3,1.6-0.8c0.4-0.6,0.6-1.3,0.6-2.1C339.3,123.5,339.1,122.8,338.6,122.3z"></path>
					</g>
				</g>
				<g>
					<g>
						<path class="st65" d="M345.8,121.6c0.5,0.6,0.7,1.4,0.7,2.4c0,2.2-1.2,4-3.1,4c-0.6,0-1.1-0.1-1.5-0.4v-0.7        c0.4,0.3,0.9,0.5,1.4,0.5c1.7,0,2.4-1.5,2.4-3c-0.4,0.6-1.1,1.1-2.1,1.1c-0.6,0-1.2-0.2-1.6-0.6c-0.4-0.4-0.7-1-0.7-1.6        c0-0.7,0.2-1.3,0.7-1.7c0.5-0.5,1-0.7,1.7-0.7C344.7,120.7,345.3,121,345.8,121.6z M342.6,121.9c-0.3,0.3-0.5,0.7-0.5,1.2        c0,0.5,0.2,0.9,0.5,1.2c0.3,0.3,0.7,0.4,1.2,0.4c0.4,0,0.8-0.1,1.2-0.4c0.4-0.3,0.6-0.6,0.7-1c-0.1-1.2-0.8-1.9-1.9-1.9        C343.4,121.4,343,121.6,342.6,121.9z"></path>
					</g>
				</g>
				<g>
					<g>
						<path class="st65" d="M348,123.3c0.2-0.2,0.5-0.2,0.8,0s0.2,0.5,0,0.8c-0.2,0.2-0.5,0.2-0.8,0        C347.8,123.9,347.8,123.5,348,123.3z M348,127.1c0.2-0.2,0.5-0.2,0.8,0c0.2,0.2,0.2,0.5,0,0.8c-0.2,0.2-0.5,0.2-0.8,0        C347.8,127.6,347.8,127.3,348,127.1z"></path>
					</g>
				</g>
				<g>
					<g>
						<path class="st65" d="M351.5,127.9v-6.3l-1.6,0.9v-0.7l1.7-1h0.7v7.1H351.5z"></path>
					</g>
				</g>
				<g>
					<g>
						<path class="st65" d="M354.9,121.8c0.5-0.7,1.2-1.1,2.1-1.1s1.6,0.4,2.1,1.1c0.5,0.7,0.8,1.6,0.8,2.6s-0.3,1.9-0.8,2.6        c-0.5,0.7-1.2,1.1-2.1,1.1s-1.6-0.4-2.1-1.1c-0.5-0.7-0.8-1.6-0.8-2.6C354.1,123.3,354.3,122.5,354.9,121.8z M358.5,122.3        c-0.4-0.6-0.9-0.9-1.6-0.9c-0.6,0-1.1,0.3-1.6,0.9c-0.4,0.6-0.6,1.3-0.6,2.1c0,0.9,0.2,1.6,0.6,2.1c0.4,0.6,0.9,0.8,1.6,0.8        c0.6,0,1.2-0.3,1.6-0.8c0.4-0.6,0.6-1.3,0.6-2.1C359.2,123.5,358.9,122.8,358.5,122.3z"></path>
					</g>
				</g>
				<g>
					<g>
						<path class="st65" d="M364.3,127.9v-7.1h3c1.4,0,2.3,0.8,2.3,2c0,1.2-0.9,2-2.3,2H365v3.1H364.3z M365,124.1h2.2        c1,0,1.6-0.5,1.6-1.3c0-0.8-0.6-1.3-1.6-1.3H365V124.1z"></path>
					</g>
				</g>
				<g>
					<g>
						<path class="st65" d="M371,127.9v-7.1h0.7l2.6,3.4l2.6-3.4h0.7v7.1h-0.7v-6l-2.3,3.1h-0.5l-2.3-3.1v6H371z"></path>
					</g>
				</g>
			</g>
			<g>
				<path class="st65" d="M298,180.4h-36c-1.1,0-2-0.9-2-2v-42.9C269.9,147.1,289.1,169.8,298,180.4z"></path>
			</g>
			<g>
				<g>
					<path class="st65" d="M292.8,121.6c-7.2,0-13,5.8-13,13c0,7.2,13,23.2,13,23.2s13-16,13-23.2       C305.8,127.5,300,121.6,292.8,121.6z M292.8,140.6c-3.4,0-6.1-2.7-6.1-6.1c0-3.4,2.7-6.1,6.1-6.1s6.1,2.7,6.1,6.1       C298.9,137.9,296.1,140.6,292.8,140.6z"></path>
				</g>
			</g>
			<g>
				<g>
					<path class="st65" d="M291.7,168.7h-22.5c-0.8,0-1.4-0.6-1.4-1.4l0,0c0-0.8,0.6-1.4,1.4-1.4h22.5c0.8,0,1.4,0.6,1.4,1.4l0,0       C293.1,168,292.5,168.7,291.7,168.7z"></path>
				</g>
				<g>
					<path class="st65" d="M285.9,173h-16.8c-0.8,0-1.4-0.6-1.4-1.4l0,0c0-0.8,0.6-1.4,1.4-1.4h16.8c0.8,0,1.4,0.6,1.4,1.4v0       C287.4,172.3,286.7,173,285.9,173z"></path>
				</g>
			</g>
		</g>
	</g>
	<g class="st68">
		<g>
			<g>
				<path class="st65" d="M328.7,192.8v63.1c0,1.1-0.9,2-2,2H198.9c-1.1,0-2-0.9-2-2v-63.1c0-1.1,0.9-2,2-2h127.8      C327.8,190.9,328.7,191.7,328.7,192.8z"></path>
			</g>
			<g>
				<path class="st65" d="M328.7,192.8v63.1c0,1.1-0.9,2-2,2h-56.9v-67.1h56.9C327.8,190.9,328.7,191.7,328.7,192.8z"></path>
			</g>
			<g>
				<g>
					<g>
						<path class="st65" d="M298.9,238.1c-1.1,0-2.2-0.6-2.8-1.6l-8.4-14.4c-0.9-1.5-0.4-3.5,1.1-4.4c1.5-0.9,3.5-0.4,4.4,1.1        l5.4,9.2l10.1-20.9c0.8-1.6,2.7-2.2,4.3-1.5c1.6,0.8,2.2,2.7,1.5,4.3l-12.8,26.2c-0.5,1.1-1.6,1.7-2.7,1.8        C299,238.1,298.9,238.1,298.9,238.1z"></path>
					</g>
				</g>
				<g>
					<g>
						<g>
							<path class="st65" d="M298.9,245.4c-10.9,0-19.8-8.9-19.8-19.8c0-10.9,8.9-19.8,19.8-19.8c10.9,0,19.8,8.9,19.8,19.8         C318.7,236.6,309.8,245.4,298.9,245.4z M298.9,208.2c-9.6,0-17.5,7.8-17.5,17.5c0,9.6,7.8,17.5,17.5,17.5         c9.6,0,17.5-7.8,17.5-17.5C316.4,216,308.5,208.2,298.9,208.2z"></path>
						</g>
					</g>
				</g>
			</g>
			<g>
				<path class="st65" d="M234.4,257.9h-35.5c-1.1,0-2-0.9-2-2v-48.8L234.4,257.9z"></path>
			</g>
			<g>
				<g>
					<g>
						<g>
							<path class="st65" d="M214.1,201.8c-3.9,0-7.1,3.2-7.1,7.1c0,3.9,3.2,7.1,7.1,7.1c3.9,0,7.1-3.2,7.1-7.1         C221.2,205,218,201.8,214.1,201.8z M219,209.1h-4.9c-0.1,0-0.2-0.1-0.2-0.2v-5.3c0-0.1,0.1-0.2,0.2-0.2         c0.1,0,0.2,0.1,0.2,0.2v5.1h4.7c0.1,0,0.2,0.1,0.2,0.2C219.2,209,219.1,209.1,219,209.1z"></path>
						</g>
					</g>
					<g>
						<g>
							<path class="st65" d="M250.6,206.3h-22.5c-0.8,0-1.4-0.6-1.4-1.4l0,0c0-0.8,0.6-1.4,1.4-1.4h22.5c0.8,0,1.4,0.6,1.4,1.4l0,0         C252,205.6,251.4,206.3,250.6,206.3z"></path>
						</g>
						<g>
							<path class="st65" d="M244.8,210.5h-16.8c-0.8,0-1.4-0.6-1.4-1.4l0,0c0-0.8,0.6-1.4,1.4-1.4h16.8c0.8,0,1.4,0.6,1.4,1.4v0         C246.3,209.9,245.6,210.5,244.8,210.5z"></path>
						</g>
					</g>
				</g>
				<g>
					<g>
						<g>
							<path class="st65" d="M213.4,229.2c-3.5,0-6.4,2.9-6.4,6.4c0,3.5,6.4,11.4,6.4,11.4s6.4-7.8,6.4-11.4         C219.8,232.1,216.9,229.2,213.4,229.2z M213.4,238.5c-1.6,0-3-1.3-3-3c0-1.6,1.3-3,3-3c1.6,0,3,1.3,3,3         C216.4,237.2,215,238.5,213.4,238.5z"></path>
						</g>
					</g>
					<g>
						<g>
							<path class="st65" d="M248.9,233.9h-22.5c-0.8,0-1.4-0.6-1.4-1.4l0,0c0-0.8,0.6-1.4,1.4-1.4h22.5c0.8,0,1.4,0.6,1.4,1.4l0,0         C250.3,233.2,249.7,233.9,248.9,233.9z"></path>
						</g>
						<g>
							<path class="st65" d="M243.1,238.2h-16.8c-0.8,0-1.4-0.6-1.4-1.4l0,0c0-0.8,0.6-1.4,1.4-1.4h16.8c0.8,0,1.4,0.6,1.4,1.4v0         C244.6,237.5,243.9,238.2,243.1,238.2z"></path>
						</g>
					</g>
				</g>
			</g>
		</g>
	</g>
	<g>
		<path class="st70" d="M398.1,109v63.1c0,1.1-0.9,2-2,2H268.3c-1.1,0-2-0.9-2-2V109c0-1.1,0.9-2,2-2h127.8    C397.2,107.1,398.1,108,398.1,109z"></path>
		<path class="st71" d="M398.1,109v63.1c0,1.1-1,2-2.3,2h-63.6v-67.1h63.6C397.1,107.1,398.1,108,398.1,109z"></path>
		<g>
			<path class="st70" d="M363.4,131.6h-22.5c-0.8,0-1.4-0.6-1.4-1.4l0,0c0-0.8,0.6-1.4,1.4-1.4h22.5c0.8,0,1.4,0.6,1.4,1.4l0,0     C364.9,130.9,364.2,131.6,363.4,131.6z"></path>
			<path class="st70" d="M357.7,135.9h-16.8c-0.8,0-1.4-0.6-1.4-1.4v0c0-0.8,0.6-1.4,1.4-1.4h16.8c0.8,0,1.4,0.6,1.4,1.4v0     C359.1,135.2,358.5,135.9,357.7,135.9z"></path>
		</g>
		<g>
			<path class="st70" d="M341.2,115.5c0.5-0.7,1.2-1.1,2.1-1.1c0.9,0,1.6,0.4,2.1,1.1c0.5,0.7,0.8,1.6,0.8,2.6s-0.3,1.9-0.8,2.6     c-0.5,0.7-1.2,1.1-2.1,1.1c-0.9,0-1.6-0.4-2.1-1.1c-0.5-0.7-0.8-1.6-0.8-2.6C340.4,117.1,340.7,116.2,341.2,115.5z M344.9,116     c-0.4-0.6-0.9-0.9-1.6-0.9c-0.6,0-1.1,0.3-1.6,0.9c-0.4,0.6-0.6,1.3-0.6,2.1c0,0.9,0.2,1.6,0.6,2.1c0.4,0.6,0.9,0.8,1.6,0.8     c0.6,0,1.2-0.3,1.6-0.8c0.4-0.6,0.6-1.3,0.6-2.1C345.5,117.3,345.3,116.6,344.9,116z"></path>
			<path class="st70" d="M352.1,115.3c0.5,0.6,0.7,1.4,0.7,2.4c0,2.2-1.2,4-3.1,4c-0.6,0-1.1-0.1-1.5-0.4v-0.7     c0.4,0.3,0.9,0.5,1.4,0.5c1.7,0,2.4-1.5,2.4-3c-0.4,0.6-1.1,1.1-2.1,1.1c-0.6,0-1.2-0.2-1.6-0.6c-0.4-0.4-0.7-1-0.7-1.6     c0-0.7,0.2-1.3,0.7-1.7c0.5-0.5,1-0.7,1.7-0.7C350.9,114.4,351.6,114.7,352.1,115.3z M348.9,115.6c-0.3,0.3-0.5,0.7-0.5,1.2     c0,0.5,0.2,0.9,0.5,1.2c0.3,0.3,0.7,0.4,1.2,0.4c0.4,0,0.8-0.1,1.2-0.4c0.4-0.3,0.6-0.6,0.7-1c-0.1-1.2-0.8-1.9-1.9-1.9     C349.6,115.1,349.2,115.3,348.9,115.6z"></path>
			<path class="st70" d="M354.3,117.1c0.2-0.2,0.5-0.2,0.8,0c0.2,0.2,0.2,0.5,0,0.8c-0.2,0.2-0.5,0.2-0.8,0     C354.1,117.6,354.1,117.3,354.3,117.1z M354.3,120.8c0.2-0.2,0.5-0.2,0.8,0c0.2,0.2,0.2,0.5,0,0.8c-0.2,0.2-0.5,0.2-0.8,0     C354.1,121.4,354.1,121,354.3,120.8z"></path>
			<path class="st70" d="M357.8,121.7v-6.3l-1.6,0.9v-0.7l1.7-1h0.7v7.1H357.8z"></path>
			<path class="st70" d="M361.1,115.5c0.5-0.7,1.2-1.1,2.1-1.1s1.6,0.4,2.1,1.1c0.5,0.7,0.8,1.6,0.8,2.6s-0.3,1.9-0.8,2.6     c-0.5,0.7-1.2,1.1-2.1,1.1s-1.6-0.4-2.1-1.1c-0.5-0.7-0.8-1.6-0.8-2.6C360.3,117.1,360.6,116.2,361.1,115.5z M364.8,116     c-0.4-0.6-0.9-0.9-1.6-0.9c-0.6,0-1.1,0.3-1.6,0.9c-0.4,0.6-0.6,1.3-0.6,2.1c0,0.9,0.2,1.6,0.6,2.1c0.4,0.6,0.9,0.8,1.6,0.8     c0.6,0,1.2-0.3,1.6-0.8c0.4-0.6,0.6-1.3,0.6-2.1C365.4,117.3,365.2,116.6,364.8,116z"></path>
			<path class="st70" d="M370.5,121.7v-7.1h3c1.4,0,2.3,0.8,2.3,2c0,1.2-0.9,2-2.3,2h-2.2v3.1H370.5z M371.3,117.9h2.2     c1,0,1.6-0.5,1.6-1.3c0-0.8-0.6-1.3-1.6-1.3h-2.2V117.9z"></path>
			<path class="st70" d="M377.3,121.7v-7.1h0.7l2.6,3.4l2.6-3.4h0.7v7.1h-0.7v-6l-2.3,3.1h-0.5l-2.3-3.1v6H377.3z"></path>
		</g>
		<path class="st72" d="M304.3,174.1h-36c-1.1,0-2-0.9-2-2v-42.9C276.1,140.8,295.3,163.6,304.3,174.1z"></path>
		<path class="st73" d="M299,115.4c-7.2,0-13,5.8-13,13c0,7.2,13,23.2,13,23.2s13-16,13-23.2C312.1,121.2,306.2,115.4,299,115.4z     M299,134.4c-3.4,0-6.1-2.7-6.1-6.1c0-3.4,2.7-6.1,6.1-6.1s6.1,2.7,6.1,6.1C305.1,131.6,302.4,134.4,299,134.4z"></path>
		<g>
			<path class="st65" d="M297.9,162.4h-22.5c-0.8,0-1.4-0.6-1.4-1.4l0,0c0-0.8,0.6-1.4,1.4-1.4h22.5c0.8,0,1.4,0.6,1.4,1.4l0,0     C299.4,161.8,298.7,162.4,297.9,162.4z"></path>
			<path class="st65" d="M292.2,166.7h-16.8c-0.8,0-1.4-0.6-1.4-1.4l0,0c0-0.8,0.6-1.4,1.4-1.4h16.8c0.8,0,1.4,0.6,1.4,1.4v0     C293.6,166.1,293,166.7,292.2,166.7z"></path>
		</g>
	</g>
	<g>
		<path class="st70" d="M335,186.6v63.1c0,1.1-0.9,2-2,2H205.2c-1.1,0-2-0.9-2-2v-63.1c0-1.1,0.9-2,2-2H333    C334.1,184.6,335,185.5,335,186.6z"></path>
		<path class="st71" d="M335,186.6v63.1c0,1.1-0.9,2-2,2h-56.9v-67.1H333C334.1,184.6,335,185.5,335,186.6z"></path>
		<g>
			<g>
				<path class="st70" d="M305.2,231.8c-1.1,0-2.2-0.6-2.8-1.6l-8.4-14.4c-0.9-1.5-0.4-3.5,1.1-4.4c1.5-0.9,3.5-0.4,4.4,1.1l5.4,9.2      L315,201c0.8-1.6,2.7-2.2,4.3-1.5c1.6,0.8,2.2,2.7,1.5,4.3L308,230c-0.5,1.1-1.6,1.7-2.7,1.8      C305.2,231.8,305.2,231.8,305.2,231.8z"></path>
			</g>
			<g>
				<path class="st70" d="M305.2,239.2c-10.9,0-19.8-8.9-19.8-19.8c0-10.9,8.9-19.8,19.8-19.8c10.9,0,19.8,8.9,19.8,19.8      C324.9,230.3,316.1,239.2,305.2,239.2z M305.2,201.9c-9.6,0-17.5,7.8-17.5,17.5c0,9.6,7.8,17.5,17.5,17.5      c9.6,0,17.5-7.8,17.5-17.5C322.6,209.8,314.8,201.9,305.2,201.9z"></path>
			</g>
		</g>
		<path class="st72" d="M240.7,251.7h-35.5c-1.1,0-2-0.9-2-2v-48.8L240.7,251.7z"></path>
		<g>
			<g>
				<path class="st73" d="M220.4,195.5c-3.9,0-7.1,3.2-7.1,7.1c0,3.9,3.2,7.1,7.1,7.1c3.9,0,7.1-3.2,7.1-7.1      C227.5,198.7,224.3,195.5,220.4,195.5z M225.3,202.9h-4.9c-0.1,0-0.2-0.1-0.2-0.2v-5.3c0-0.1,0.1-0.2,0.2-0.2      c0.1,0,0.2,0.1,0.2,0.2v5.1h4.7c0.1,0,0.2,0.1,0.2,0.2C225.5,202.8,225.4,202.9,225.3,202.9z"></path>
				<g>
					<path class="st65" d="M256.8,200h-22.5c-0.8,0-1.4-0.6-1.4-1.4l0,0c0-0.8,0.6-1.4,1.4-1.4h22.5c0.8,0,1.4,0.6,1.4,1.4l0,0       C258.3,199.3,257.6,200,256.8,200z"></path>
					<path class="st65" d="M251.1,204.3h-16.8c-0.8,0-1.4-0.6-1.4-1.4v0c0-0.8,0.6-1.4,1.4-1.4h16.8c0.8,0,1.4,0.6,1.4,1.4v0       C252.5,203.6,251.9,204.3,251.1,204.3z"></path>
				</g>
			</g>
			<g>
				<path class="st73" d="M219.7,223c-3.5,0-6.4,2.9-6.4,6.4c0,3.5,6.4,11.4,6.4,11.4s6.4-7.8,6.4-11.4      C226,225.8,223.2,223,219.7,223z M219.7,232.3c-1.6,0-3-1.3-3-3c0-1.6,1.3-3,3-3c1.6,0,3,1.3,3,3      C222.6,230.9,221.3,232.3,219.7,232.3z"></path>
				<g>
					<path class="st65" d="M255.1,227.6h-22.5c-0.8,0-1.4-0.6-1.4-1.4l0,0c0-0.8,0.6-1.4,1.4-1.4h22.5c0.8,0,1.4,0.6,1.4,1.4l0,0       C256.6,227,255.9,227.6,255.1,227.6z"></path>
					<path class="st65" d="M249.4,231.9h-16.8c-0.8,0-1.4-0.6-1.4-1.4v0c0-0.8,0.6-1.4,1.4-1.4h16.8c0.8,0,1.4,0.6,1.4,1.4v0       C250.8,231.3,250.2,231.9,249.4,231.9z"></path>
				</g>
			</g>
		</g>
	</g>
	<g>
		<g>
			<path class="st65" d="M81.6,222.6c-0.5-11.5-1.5-21.5-2.7-28.5c-1.9-11.1-3.7-17.6-3.7-17.6c-0.3-1-3.9-4.9-12.1-4.8     c-8.2,0.1-7.4,5.3-7.4,5.3l0,0c0,0.2,0,0.3,0.1,0.5c0.1,0.3,7.6,27.4,7.2,62.4c0,0.5-0.1,1.3,0,1.9c0,0,18.9,0.5,18.9,0     C82.6,238.7,82.3,230.2,81.6,222.6z"></path>
			<path class="st66" d="M84,239.7c0,0.5-0.3,0.9-0.6,0.9h0c-0.3,0-0.6-0.4-0.6-0.9H66.6c0,0.5-0.3,0.9-0.6,0.9h0     c-0.3,0-0.6-0.4-0.6-0.9c0.1-10-0.5-19.4-1.3-27.7c-2.2-20.6-6.1-34.4-6.2-34.6c0-0.1-0.1-0.3-0.1-0.5c0,0-0.8-5.2,7.4-5.3     c8.2-0.1,11.8,3.8,12.1,4.8c0,0.1,1,3.7,2.3,10.2c0.4,2.2,0.9,4.6,1.4,7.4c1.2,7,2.2,17,2.7,28.5C84.4,230.2,84.6,236.6,84,239.7     z"></path>
			<path class="st74" d="M64.3,240.5h63.5c0,0-1.5-6-38.2-5.1C63.5,236.1,64.3,240.5,64.3,240.5z"></path>
			<g>
				<path class="st66" d="M59.1,303c7.4-37.3,5.5-60.1,5.5-60.4c0-0.6,1-1.1,1.6-1.1c0.6,0,3.1-0.2,3.4,0.3      c0.4,0.6,1.9,28.8-9.1,61.2H59.1z"></path>
			</g>
			<g>
				<path class="st66" d="M118.4,303c-7.4-37.3-5.5-60.1-5.5-60.4c0-0.6-1-1.1-1.6-1.1c-0.6,0-3.1-0.2-3.4,0.3      c-0.4,0.6-1.9,28.8,9.1,61.2H118.4z"></path>
			</g>
			<g>
				<path class="st65" d="M130.1,303c-7.4-37.3-5.5-60.1-5.5-60.4c0-0.6-1-1.1-1.6-1.1c-0.6,0-3.1-0.2-3.4,0.3      c-0.4,0.6-1.9,28.8,9.1,61.2H130.1z"></path>
			</g>
			<g>
				<path class="st65" d="M70.9,303c7.4-37.3,5.5-60.1,5.5-60.4c0-0.6,1-1.1,1.6-1.1c0.6,0,3.1-0.2,3.4,0.3      c0.4,0.6,1.9,28.8-9.1,61.2H70.9z"></path>
			</g>
			<path class="st66" d="M127.4,242.4H64.7c-1,0-1.7-0.8-1.7-1.7v0c0-1,0.8-1.7,1.7-1.7h62.6c1,0,1.7,0.8,1.7,1.7l0,0     C129.1,241.7,128.3,242.4,127.4,242.4z"></path>
			<g>
				<path class="st75" d="M125.6,185.1l21.1-4.6l1.2,3c0,0-23.3,13.9-25.5,13.2C120.3,196.1,125.6,185.1,125.6,185.1z"></path>
				<path class="st76" d="M106.4,280.5c-0.5,0.6-0.6,1.3-0.3,2c0,0,0,0,0,0c0.5,1.3,2.1,2.8,3.9,4.3c0.2,0.2,0.4,0.4,0.6,0.5      c0,0,0.1,0.1,0.1,0.1c0,0,0.1,0.1,0.1,0.1c1.7,1.6,1.1,2,4.2,5.2c3.5,3.7,6,3.8,6.7,3.4c0.6-0.3-0.6-2.2-1.9-4.4      c-0.1-0.1-0.1-0.2-0.2-0.3c-0.2-0.3-0.4-0.6-0.5-0.9c-1.6-2.6-1.2-3.9-0.8-7.8c0.3-3.2,5-17.9,5-17.9l-6.8-1.2      c0,0-2,11.7-4.3,13.5c-1.2,1-2.6,1-3.7,1.7c-0.1,0-0.2,0.1-0.2,0.2C107.6,279.5,106.9,279.9,106.4,280.5z"></path>
				<path class="st77" d="M106.4,280.5c-0.5,0.6-0.6,1.3-0.3,2c0,0,0,0,0,0c0.6,1.3,2.2,2.8,3.9,4.3c0.2,0.2,0.4,0.4,0.6,0.5      c0,0,0.1,0.1,0.1,0.1c0,0,0.1,0.1,0.1,0.1c1.7,1.6,1.1,2,4.2,5.2c3.5,3.7,6,3.8,6.7,3.4c0.6-0.3-0.6-2.2-1.9-4.4      c-0.7-0.3-3.9-1.6-6.3-4.7c-2.1-2.7-3.6-6.2-5-8.3c-0.1,0-0.2,0.1-0.2,0.2C107.6,279.5,106.9,279.9,106.4,280.5z"></path>
				<path class="st78" d="M161.2,276.3c0.4,2.1,3.4,1.7,6.7,0.9c3.3-0.8,2.5,0.2,7.3-0.4c4.8-0.5,6.2-2.3,6.3-3      c0.1-0.6-2.2-0.8-4.7-1.1c-0.3,0-0.6-0.1-1-0.1c-2.8-0.4-4.9-2.2-7.5-3.7c-2.4-1.4-6.1-7.2-6.1-7.2l-6.5,0.5      c0,0,3.4,5.2,4.7,7.5c0.8,1.3,0.7,3.1,0.6,4.4C161.1,274.8,161,275.6,161.2,276.3z"></path>
				<path class="st77" d="M167.9,277.2c3.3-0.8,2.5,0.2,7.3-0.4c4.8-0.5,6.2-2.3,6.3-3c0.1-0.6-2.2-0.8-4.7-1.1l0,0      c0,0-2.9,2-6.8,2.1c-3.2,0.1-6.6-0.8-8.9-0.8c-0.1,0.7-0.1,1.5,0.1,2.2C161.6,278.4,164.6,278.1,167.9,277.2z"></path>
				<path class="st75" d="M146.7,180.5c0,0,1.6-3.8,3.3-4c1.7-0.2,7.1-1,7.5-0.2c0.4,0.8,0,3.6-1.2,4.6c-1.2,1-8.4,2.6-8.4,2.6      L146.7,180.5z"></path>
				<path class="st79" d="M136.2,234.6l-14.1,37.8c0,0-2.2,0.2-4.2-0.4c-1.9-0.5-4.1-2-4.1-2s3.5-36.3,9.9-43.9      C130.1,218.6,136.2,234.6,136.2,234.6z"></path>
				<path class="st80" d="M80.6,219.3c0,0,40.4-13.7,49.4-10.7c9,2.9,36,56.7,36,56.7s-0.6,0.8-2.3,1.4c-1.5,0.6-5.3,0.5-5.3,0.5      s-24.4-20.9-27.3-27c-2.9-6.1-4.1-11.9-7-11.3c-2.9,0.6-37.5,14.2-45.3,6.1c-7.8-8.1-5.8-18.7-5.8-18.7L80.6,219.3z"></path>
				<path class="st79" d="M103.6,123.1c-1.7-1-3.8-1.1-5.3-1c0.4-0.4,1.1-0.5,1.1-0.5c-0.9-0.1-2.9,0.8-2.9,0.8      c-12.6-4.9-14.6,13.7-14.3,18c0.3,4.3,0.3,9.3-6,13.2c-12.4,7.6-1.9,20.9-1.9,20.9c0.1,0.1,5.8,9.7,5.8,9.7      c-0.3-3.5,15.8-21.9,24.2-27.4c2-3,2.8-8.3,2.8-8.7c-0.4,4.2-1.1,6.6-1.7,7.9C112.4,149.3,108.3,125.7,103.6,123.1z"></path>
				<path class="st78" d="M103.7,156.9c0,0-4.1,2.1-7.1,1.3c-2.9-0.8-4.8-4.5-4.8-4.6c1.2-0.2,1.6-1.9,1.6-9.2l0.6,0.1l9.3,1.8      c0,0-0.2,2.9-0.2,5.7C103,154.5,103.1,156.7,103.7,156.9z"></path>
				<path class="st76" d="M103.2,146.4c0,0-0.2,2.9-0.2,5.7c-5.2-0.1-8-4.9-9.1-7.5L103.2,146.4z"></path>
				<path class="st79" d="M92.9,143.6c0,0-2.7-4.3-3.4-8c-0.5-2.6,0.9-12.4,10.7-11c0,0,2.9,0.3,5.5,2.1c2.1,1.4,5.2,4.6,1.8,13.1      l-0.9,2.9L92.9,143.6z"></path>
				<path class="st78" d="M105,149.1c0,0-12.4,0.2-12.4-7.5c0-7.7-1.6-12.8,6.3-13.3c7.9-0.5,9.4,2.5,10,5      C109.6,135.9,108.2,148.8,105,149.1z"></path>
				<path class="st79" d="M104.5,128.1c0,0-3.4,9-8.6,10.4c-5.2,1.3-7.4-0.1-7.4-0.1s4-3.2,4.8-8.7      C93.3,129.7,102,123.8,104.5,128.1z"></path>
				<path class="st79" d="M103.7,128.8c0,0,2.5,2,3.1,4c0.6,2,0.9,6,2.1,5.9c0,0,2.5-6.1-0.3-9.6      C105.5,125.4,103.7,128.8,103.7,128.8z"></path>
				<path class="st81" d="M76.2,190.1c-1.2-5.1,2.9-15,7.3-23.2c3.9-7.4,8-13.5,8.4-13.3c10.4,6.1,11.3,1,11.3,1l0,0      c0,0,9.4,1.2,12.1,5.8c3.3,5.7,6.9,21.6,10.4,24.6c-0.5,1.7-0.3,2.6,0.3,4.6c0.1,0.4,0.3,0.9,0.4,1.3c0.5,1.5,1.2,2.6,1.8,3.7      c-1.8,1.1-5.3,3.2-7.8,1.7c-3.9-2.3-7-9.2-8.7-12c0,0,0,0,0,0c-3.7,21.1,1.3,25.9-1.2,28.1c-2.7,2.4-6.6-1.1-15.1,2.6      c-5.6,2.4-13.3,5.9-18.6,6.5c-2.7,0.3-4.8-0.2-5.4-2C69.2,214.2,78.5,199.9,76.2,190.1z"></path>
				<path class="st70" d="M102.2,144.4c0,0,0.2,1,2.7,0.8c0,0,2-0.1,2-1.2C106.9,144,104.9,143.3,102.2,144.4z"></path>
				<path class="st82" d="M71.1,219.5c0.7,1.8,2.7,2.3,5.4,2c3.6-1.6,19.2-7.6,19-11.7c-0.3-6.1-3-6.3-1.1-13.7      c1.6-6-12.9-17.2-15.2-19.6c-4.3,8.2-4.4,8.6-3.2,13.7C78.5,199.9,69.2,214.2,71.1,219.5z"></path>
				<path class="st81" d="M69.4,197.7c2.8-3.9,5.7-5.9,7.5-7c-0.4-1.1,11.6-15.9,11.6-18.2c0-2.3,3.2-18.8,3.2-18.8      s-10.1,0.6-13.6,5.5C73.9,165.2,64.8,188.6,69.4,197.7z"></path>
				<path class="st78" d="M76.9,190.7l20.1,5.2l-1.9,3.4c0,0-24.5-0.2-25.8-1.7S76.9,190.7,76.9,190.7z"></path>
				<path class="st82" d="M111.5,184.3c1.7,2.8,4.8,9.7,8.7,12c2.6,1.5,6-0.6,7.8-1.7c-0.6-1-1.2-2.2-1.8-3.7      c-1.4,0.3-3.2,0.7-4.3,1.1C119.7,192.8,111.5,184.3,111.5,184.3z"></path>
				<path class="st78" d="M97,195.9c0,0,6.3-1.8,7.8-1.4c1.5,0.4,6.7,3.8,5.9,4.8c-0.7,0.9-5.3-0.6-7.4-0.3      c-2.1,0.3-3.7,1.3-5.2,1.1c-1.5-0.2-3.1-0.8-3.1-0.8L97,195.9z"></path>
				<path class="st78" d="M97,195.9c0,0,3.1-1.6,4-2.5c0.1-0.1,0.3-0.1,0.4,0c0.2,0.4,0.5,1.1-0.6,1.8C99.2,196.3,97,195.9,97,195.9      z"></path>
			</g>
		</g>
		<g>
			<path class="st73" d="M126.2,204.8H96.8l0,0c0-1.3,1.1-2.3,2.3-2.3h27.1V204.8z"></path>
			<polygon class="st73" points="126.1,172.7 171.7,172.7 160.8,204.8 114.9,204.8    "></polygon>
			<polygon class="st71" points="172.4,172.7 161.5,204.8 115.6,204.8 126.8,172.7    "></polygon>
			<path class="st70" d="M147.8,188.5c-0.3,1.2-1.5,2.2-2.7,2.2c-1.2,0-2-1-1.7-2.2c0.3-1.2,1.5-2.2,2.7-2.2     C147.3,186.2,148.1,187.2,147.8,188.5z"></path>
			<path class="st73" d="M172.4,172.7l-10.9,32.1h-30.4c20.1-6.9,25.5-27.8,26.4-32.1H172.4z"></path>
		</g>
	</g>
	<g>
		<g>
			<path class="st70" d="M40.1,303c0.6,0,1.1-0.4,1.2-1l5.7-32.4l8.2-46.7l2.3-13l-5.9-0.2l-1,7.6l-7.1,53.2l-4.2,31.5     C39.2,302.6,39.6,303,40.1,303z"></path>
		</g>
		<path class="st72" d="M50.6,217.3c3.8,1.7,4.6,5.6,4.6,5.6l2.3-13l-5.9-0.2L50.6,217.3z"></path>
	</g>
	<g>
		<g>
			<path class="st70" d="M185.9,303c-0.6,0-1.1-0.4-1.2-1l-5.7-32.4l-8.2-46.7l-2.3-13l5.9-0.2l1,7.6l7.1,53.2l4.2,31.5     C186.8,302.6,186.4,303,185.9,303z"></path>
		</g>
		<path class="st72" d="M175.4,217.3c-3.8,1.7-4.6,5.6-4.6,5.6l-2.3-13l5.9-0.2L175.4,217.3z"></path>
	</g>
	<path class="st70" d="M37.7,215h147.1c2.8,0,5.1-2.3,5.1-5.1l0,0c0-2.8-2.3-5.1-5.1-5.1H37.7c-2.8,0-5.1,2.3-5.1,5.1v0   C32.6,212.7,34.9,215,37.7,215z"></path>
	<path class="st77" d="M511,304.4H3.2c-0.4,0-0.7-0.3-0.7-0.7l0,0c0-0.4,0.3-0.7,0.7-0.7H511c0.4,0,0.7,0.3,0.7,0.7v0   C511.7,304.1,511.4,304.4,511,304.4z"></path>
	<g class="st68">
		<g>
			<g>
				<path class="st65" d="M381.4,137.7c0,0,0-6.8-0.9-7.8c-0.9-1-4.9-4.8-5.4-4.3c-0.5,0.5,1.4,4.3,1.7,5.5c0.3,1.2,0.3,2.2,0,1.7      c-0.3-0.6-2.2-2.7-2.6-2.5c-0.4,0.2,0.7,1.9,1.1,3.1c0.4,1.2,0.6,3,3,4.2C380.6,138.7,381.4,137.7,381.4,137.7z"></path>
			</g>
			<g>
				<path class="st65" d="M452.5,197.7c0,0-0.6,5.8-1.3,6.9c-0.7,1.1-3.6,4.6-4.9,5.3c-1.3,0.7,0.8-4.6,0.5-5.7c-0.3-1-1,1.9-1.6,2      c-0.6,0.1-0.4-2.6-0.4-3.5c0-1,2.7-3.3,3.6-5.4C449.4,195.2,452.5,197.7,452.5,197.7z"></path>
			</g>
			<g>
				<path class="st65" d="M437.6,150c0,0-12.1,21.1-41.1,20c-9-0.4-19.6-32.5-19.6-32.5s1.4-2.2,5.4-0.3c0,0,14.7,17.5,16.6,19.5      c1.7,1.8,20.2-9.4,27.1-9.9C433,146.2,437.6,150,437.6,150z"></path>
			</g>
			<g>
				<g>
					<path class="st65" d="M466.8,287.4c0,0,3.5,3,2.8,5.2c-0.7,2.1-3.8,3.6-4.2,6.2c-0.4,2.6-2.1,4.1-3.6,4.1c-1.5,0-7.3,0-7.3,0       s-1.1-1.8,1.6-2.4c2.7-0.6,3.7-3.6,3.6-6.5c-0.2-2.9,0.3-6.7,0.3-6.7l5.8-1.3L466.8,287.4z"></path>
				</g>
				<g>
					<path class="st65" d="M424.2,295.3c0,0,0.6,6.9-0.9,7.6l-19.5,0c0,0,0-2.1,3.1-2.6c3.1-0.5,8.6-2.2,9.6-6.1       C417.5,290.2,424.2,295.3,424.2,295.3z"></path>
				</g>
				<g>
					<path class="st65" d="M407.8,198.1c0,0,1,12.1,2.2,26.5c1.6,19.7,3.6,43.9,3.8,48.4c0.3,8,1.7,20.7,1.7,20.7s3.2,3,9.6,1.7       c0,0,5.7-18.2,7.4-37.4c0-0.3,0.1-0.6,0.1-0.9c1.5-19.6,3.9-60.7,3.9-60.7L407.8,198.1z"></path>
				</g>
				<g>
					<path class="st65" d="M407.8,198.1c0,0,1,12.1,2.2,26.5l22.5,33.5c0-0.3,0.1-0.6,0.1-0.9c1.5-19.6,3.9-60.7,3.9-60.7       L407.8,198.1z"></path>
				</g>
				<g>
					<path class="st65" d="M412.5,199.6c0,0,18.5,43.6,30.7,64.2c12.2,20.5,16,26.2,16,26.2s7-2.6,7.6-4.4c0,0-4.7-39.6-12.8-49.3       c-4.6-5.5-10-21.8-10.3-27.5c-0.3-5.7-1.6-17.1-1.6-17.1L412.5,199.6z"></path>
				</g>
			</g>
			<g>
				<path class="st65" d="M436.8,132.3c0,0-12.5,5.8-19.8,3.6c0,0,1.8-2.1,4.9-3.7c-0.2-1.4-0.4-2.6-0.6-3.6      c-0.3-2.4-0.3-3.7-0.3-3.7l4.8-3.6l4.6-3.5C430.2,127.6,436.8,132.3,436.8,132.3z"></path>
			</g>
			<g>
				<path class="st65" d="M443.4,193.9c0,0.7-1.6,1.6-2.3,1.9c-5.4,2.2-10.4,3.8-16,4.3c-6.7,0.7-14.6-0.8-17.3-0.7      c-0.3,0-0.5-0.1-0.7-0.3c-0.2-0.1-0.3-7.8-0.2-17.5c0-0.4,0-0.8,0-1.2v-0.1c0.1-3.8,0.2-7.8,0.4-11.7c0.4-8.7,1.1-17.1,2.3-21.8      c1.5-5.5,4.8-9.1,7.8-11.8l2.5-2.1c2.5,0.5,5.1,0.3,7.8-0.9c2.9-1.3,6-2.8,6.5-2.4c3.8,2.6,6.3,8.6,7.7,16.1c0,0,0,0.1,0,0.1      c0.8,4.3,1.1,9.2,1.1,14.3c0,1.9-0.1,3.8-0.2,5.7c-0.6,8.6-0.2,16.3,0.2,21.7c0.1,1.1,0.1,2,0.2,2.9      C443.3,191.9,443.4,193.1,443.4,193.9z"></path>
			</g>
			<g>
				<path class="st65" d="M443,187.5c-20.8-22.9-7.9-39.5-7.9-39.5l6.8-2.1c0.8,4.3,1.1,9.2,1.1,14.3c0,1.9-0.1,3.8-0.2,5.7      C442.3,174.5,442.6,182.2,443,187.5z"></path>
			</g>
			<g>
				<path class="st65" d="M430.6,121.5c0,0-3.2,5.5-9.2,7.1c-0.3-2.4-0.3-3.7-0.3-3.7l4.8-3.6L430.6,121.5z"></path>
			</g>
			<g>
				<path class="st65" d="M418.9,124.7c0,0,12,1.9,13.1-5.1c1.1-7,3.4-11.5-4.2-13c-7.6-1.5-9.5,1-10.5,3.2      C416.4,112.1,415.8,124.1,418.9,124.7z"></path>
			</g>
			<g>
				<path class="st65" d="M436.3,105.8c0.1-0.1,0.4-0.2,0.9-0.2c0,0-0.4-0.3-1-0.3c-0.1-0.7-0.5-2-1.9-2.4c0,0,0.7,0.4,0.8,1.2      c-1.5-1.5-4.9-2.6-14-1.9c-12.1,0.9-8.1,8.3-6.5,9.2c1.6,0.9,5.5-1.5,8.4-1.3c2.9,0.2,3.5,4.2,4.5,4.8c1,0.6,0.6-0.4,1.9-1      c1.3-0.6,1.5,1.5,1.1,2.9c-0.4,1.4,1.5,3.2,1.5,3.2s0,0,1.9-1.9c1.9-1.9,3.6-10,2.8-11.7C436.5,106.1,436.4,105.9,436.3,105.8z"></path>
			</g>
			<g>
				<path class="st65" d="M434.1,129.6c0,0,7.6,3.4,11.2,8.7c5.6,8.2,12.1,37.9,12.3,40.6c0.1,2.8-4.8,22.2-4.8,22.2      s-4.9-0.3-6.2-2.7c0,0,1-20,0.4-21.2c-0.6-1.3-20.6-26.8-18.4-32.2C430.8,139.5,434.1,129.6,434.1,129.6z"></path>
			</g>
		</g>
	</g>
	<g>
		<path class="st78" d="M385.5,135.9c0,0-2.1-6.8-3.3-7.5c-1.2-0.7-6.2-3.2-6.4-2.5c-0.3,0.7,2.7,3.9,3.3,4.9c0.7,1.1,1,2.1,0.5,1.7    c-0.5-0.5-3-2-3.2-1.7c-0.3,0.3,1.3,1.7,2,2.7c0.7,1.1,1.5,2.8,4.1,3.2C385.1,137.2,385.5,135.9,385.5,135.9z"></path>
		<path class="st78" d="M461.9,192.8c0,0-0.6,6.1-1.3,7.3c-0.7,1.2-3.6,4.8-4.9,5.6c-1.3,0.7,0.8-4.9,0.5-6c-0.3-1.1-1,2-1.6,2.1    c-0.6,0.1-0.4-2.7-0.4-3.7c0-1,2.7-3.5,3.6-5.6C458.8,190.3,461.9,192.8,461.9,192.8z"></path>
		<path class="st82" d="M442.8,130.1c0,0-5.1,24.9-33,33.1c-8.7,2.5-28.5-26.2-28.5-26.2s0.7-2.6,5.1-2c0,0,19.3,12.8,21.7,14.2    c2.2,1.2,16.3-15.8,22.8-18.6C437.3,127.8,442.8,130.1,442.8,130.1z"></path>
		<g>
			<path class="st77" d="M476.2,286.8c0,0,3.5,3.2,2.8,5.4c-0.7,2.2-3.8,3.7-4.2,6.5c-0.4,2.7-2.1,4.2-3.6,4.2c-1.5,0-7.3,0-7.3,0     s-1.1-1.9,1.6-2.5c2.7-0.6,3.7-3.8,3.6-6.8c-0.2-3,0.3-7,0.3-7l5.8-1.3L476.2,286.8z"></path>
			<path class="st77" d="M433.6,295c0,0,0.6,7.2-0.9,8l-19.5,0c0,0,0-2.2,3.1-2.7s8.6-2.3,9.6-6.4C426.8,289.7,433.6,295,433.6,295z     "></path>
			<path class="st83" d="M417.2,193.3c0,0,1,12.6,2.2,27.8c1.6,20.6,3.6,45.9,3.8,50.7c0.3,8.3,1.7,21.7,1.7,21.7s3.2,3.2,9.6,1.8     c0,0,5.7-19,7.4-39.1c0-0.3,0.1-0.7,0.1-1c1.5-20.5,3.9-63.6,3.9-63.6L417.2,193.3z"></path>
			<path class="st84" d="M417.2,193.3c0,0,1,12.6,2.2,27.8l22.5,35.1c0-0.3,0.1-0.7,0.1-1c1.5-20.5,3.9-63.6,3.9-63.6L417.2,193.3z"></path>
			<path class="st83" d="M421.9,194.8c0,0,18.5,45.7,30.7,67.2c12.2,21.5,16,27.5,16,27.5s7-2.7,7.6-4.6c0,0-4.7-41.5-12.8-51.6     c-4.6-5.7-10-22.9-10.3-28.9c-0.3-6-1.6-17.9-1.6-17.9L421.9,194.8z"></path>
		</g>
		<path class="st78" d="M446.2,124.3c0,0-12.5,6-19.8,3.8c0,0,1.8-2.2,4.9-3.9c-0.2-1.5-0.4-2.7-0.6-3.8c-0.3-2.5-0.3-3.9-0.3-3.9    l4.8-3.8l4.6-3.6C439.6,119.4,446.2,124.3,446.2,124.3z"></path>
		<path class="st81" d="M452.8,188.9c0,0.8-1.6,1.6-2.3,2c-5.4,2.4-10.4,4-16,4.5c-6.7,0.7-14.6-0.8-17.3-0.8    c-0.3,0-0.5-0.1-0.7-0.3c-0.2-0.1-0.3-8.2-0.2-18.4c0-0.4,0-0.8,0-1.2v-0.1c0.1-4,0.2-8.1,0.4-12.3c0.4-9.1,1.1-17.9,2.3-22.8    c1.5-5.7,4.8-9.5,7.8-12.3l2.5-2.2c2.5,0.5,5.1,0.4,7.8-0.9c2.9-1.4,6-2.9,6.5-2.5c3.8,2.8,6.3,9,7.7,16.9c0,0,0,0.1,0,0.1    c0.8,4.5,1.1,9.6,1.1,14.9c0,2-0.1,4-0.2,6c-0.6,9-0.2,17.1,0.2,22.7c0.1,1.1,0.1,2.1,0.2,3C452.7,186.8,452.8,188,452.8,188.9z"></path>
		<path class="st82" d="M452.4,182.2c-20.8-24-7.9-41.4-7.9-41.4l6.8-2.2c0.8,4.5,1.1,9.6,1.1,14.9c0,2-0.1,4-0.2,6    C451.7,168.6,452,176.6,452.4,182.2z"></path>
		<path class="st76" d="M440,113.1c0,0-3.2,5.8-9.2,7.4c-0.3-2.5-0.3-3.9-0.3-3.9l4.8-3.8L440,113.1z"></path>
		<path class="st78" d="M428.3,116.4c0,0,12,2,13.1-5.4c1.1-7.3,3.4-12-4.2-13.6c-7.6-1.6-9.5,1-10.5,3.4    C425.7,103.2,425.2,115.7,428.3,116.4z"></path>
		<path class="st77" d="M445.7,96.6c0.1-0.1,0.4-0.2,0.9-0.3c0,0-0.4-0.3-1-0.3c-0.1-0.8-0.5-2.1-1.9-2.5c0,0,0.7,0.4,0.8,1.2    c-1.5-1.6-4.9-2.7-14-2c-12.1,1-8.1,8.7-6.5,9.6c1.6,0.9,5.5-1.6,8.4-1.4c2.9,0.2,3.5,4.4,4.5,5c1,0.6,0.6-0.4,1.9-1    c1.3-0.6,1.5,1.6,1.1,3.1c-0.4,1.4,1.5,3.3,1.5,3.3s0,0,1.9-2c1.9-2,3.6-10.5,2.8-12.3C445.9,96.9,445.8,96.7,445.7,96.6z"></path>
		<path class="st81" d="M443.5,121.5c0,0,7.6,3.6,11.2,9.1c5.6,8.5,12.1,39.7,12.3,42.6c0.1,2.9-4.8,23.2-4.8,23.2s-4.9-0.3-6.2-2.8    c0,0,1-20.9,0.4-22.3c-0.6-1.3-20.6-28-18.4-33.7C440.2,131.8,443.5,121.5,443.5,121.5z"></path>
	</g>
	<path class="st70" d="M380.1,168.3h-28.5c-3,0-5.4-2.4-5.4-5.4v0c0-3,2.4-5.4,5.4-5.4h28.5c3,0,5.4,2.4,5.4,5.4l0,0   C385.5,165.9,383.1,168.3,380.1,168.3z"></path>
	<g>
		<g>
			<path class="st73" d="M365.8,165.3c-0.2,0-0.4-0.1-0.5-0.3l-1.6-2.7c-0.2-0.3-0.1-0.6,0.2-0.8c0.3-0.2,0.6-0.1,0.8,0.2l1,1.7     l1.9-3.9c0.1-0.3,0.5-0.4,0.8-0.3c0.3,0.1,0.4,0.5,0.3,0.8l-2.4,4.9C366.3,165.1,366.1,165.3,365.8,165.3     C365.8,165.3,365.8,165.3,365.8,165.3z"></path>
		</g>
		<g>
			<path class="st73" d="M365.8,166.6c-2,0-3.7-1.7-3.7-3.7c0-2,1.7-3.7,3.7-3.7c2,0,3.7,1.7,3.7,3.7     C369.5,165,367.9,166.6,365.8,166.6z M365.8,159.7c-1.8,0-3.3,1.5-3.3,3.3c0,1.8,1.5,3.3,3.3,3.3c1.8,0,3.3-1.5,3.3-3.3     C369.1,161.2,367.6,159.7,365.8,159.7z"></path>
		</g>
	</g>
	<g class="st68">
		<g>
			<g>
				<path class="st65" d="M211.6,118.7h-48.3c-6.3,0-11.5,5.2-11.5,11.5v18.3c0,2.9,1.1,5.6,2.9,7.6l-2.9,13.1l16.6-9.2h43.3      c6.3,0,11.5-5.2,11.5-11.5v-18.3C223.1,123.9,217.9,118.7,211.6,118.7z"></path>
			</g>
			<g>
				<path class="st65" d="M212.5,132.6h-50.1c-1,0-1.9-0.8-1.9-1.9l0,0c0-1,0.8-1.9,1.9-1.9h50.1c1,0,1.9,0.8,1.9,1.9l0,0      C214.4,131.8,213.5,132.6,212.5,132.6z"></path>
			</g>
			<g>
				<path class="st65" d="M212.5,140.8h-50.1c-1,0-1.9-0.8-1.9-1.9l0,0c0-1,0.8-1.9,1.9-1.9h50.1c1,0,1.9,0.8,1.9,1.9l0,0      C214.4,140,213.5,140.8,212.5,140.8z"></path>
			</g>
			<g>
				<path class="st65" d="M212.5,148.7h-50.1c-1,0-1.9-0.8-1.9-1.9l0,0c0-1,0.8-1.9,1.9-1.9h50.1c1,0,1.9,0.8,1.9,1.9l0,0      C214.4,147.9,213.5,148.7,212.5,148.7z"></path>
			</g>
		</g>
	</g>
	<g>
		<path class="st85" d="M217.9,112.4h-48.3c-6.3,0-11.5,5.2-11.5,11.5v18.3c0,2.9,1.1,5.6,2.9,7.6L158,163l16.6-9.2h43.3    c6.3,0,11.5-5.2,11.5-11.5V124C229.4,117.6,224.2,112.4,217.9,112.4z"></path>
		<path class="st65" d="M218.8,126.4h-50.1c-1,0-1.9-0.8-1.9-1.9l0,0c0-1,0.8-1.9,1.9-1.9h50.1c1,0,1.9,0.8,1.9,1.9l0,0    C220.6,125.5,219.8,126.4,218.8,126.4z"></path>
		<path class="st65" d="M218.8,134.6h-50.1c-1,0-1.9-0.8-1.9-1.9l0,0c0-1,0.8-1.9,1.9-1.9h50.1c1,0,1.9,0.8,1.9,1.9l0,0    C220.6,133.7,219.8,134.6,218.8,134.6z"></path>
		<path class="st65" d="M218.8,142.5h-50.1c-1,0-1.9-0.8-1.9-1.9l0,0c0-1,0.8-1.9,1.9-1.9h50.1c1,0,1.9,0.8,1.9,1.9l0,0    C220.6,141.6,219.8,142.5,218.8,142.5z"></path>
	</g>
</g>
</svg>